<svg width="58" height="58" viewBox="0 0 58 58" fill="none" xmlns="http://www.w3.org/2000/svg">
<g filter="url(#filter0_f_8_8200)">
<path d="M23.8125 16.4219C23.1354 16.4219 22.5417 16.6667 22.0312 17.1562C21.5521 17.6354 21.1927 18.1979 20.9531 18.8438C20.724 19.4896 20.6094 20.1667 20.6094 20.875C20.6094 21.9062 20.7656 22.9375 21.0781 23.9688C21.3177 24.75 21.5938 25.4844 21.9062 26.1719C22.2188 26.849 22.6302 27.6771 23.1406 28.6562L23.5781 29.5C24.0677 30.4479 24.4583 31.4583 24.75 32.5312C25.0417 33.5938 25.1875 34.6458 25.1875 35.6875C25.1875 36.1458 25.1354 36.6562 25.0312 37.2188C24.9271 37.7812 24.7708 38.349 24.5625 38.9219C24.3438 39.5365 24.0365 40.0365 23.6406 40.4219C23.2552 40.8073 22.8229 41 22.3438 41C22.1354 41 21.849 40.9167 21.4844 40.75C21.099 40.5938 20.7969 40.5156 20.5781 40.5156C20.349 40.5156 20.2344 40.6458 20.2344 40.9062C20.3802 41.1562 20.5781 41.3385 20.8281 41.4531C21.0677 41.5677 21.2812 41.6354 21.4688 41.6562C21.6667 41.6875 21.9583 41.7031 22.3438 41.7031C22.9792 41.7031 23.5677 41.5104 24.1094 41.125C24.651 40.75 25.0833 40.25 25.4062 39.625C25.7083 39.0312 25.9375 38.4062 26.0938 37.75C26.2604 37.0833 26.3438 36.4479 26.3438 35.8438C26.3438 34.8646 26.2292 33.901 26 32.9531C25.8229 32.2031 25.6094 31.5208 25.3594 30.9062C25.1094 30.2812 24.7656 29.526 24.3281 28.6406L24.0312 28.0156C23.625 27.1927 23.25 26.4115 22.9062 25.6719C22.5417 24.9115 22.25 24.0885 22.0312 23.2031C21.8125 22.3177 21.7031 21.4531 21.7031 20.6094C21.7031 20.1094 21.7812 19.6198 21.9375 19.1406C22.1042 18.6094 22.375 18.1615 22.75 17.7969C23.1354 17.4323 23.5677 17.25 24.0469 17.25C24.2031 17.25 24.3802 17.3021 24.5781 17.4062C24.7865 17.5208 24.9583 17.5781 25.0938 17.5781C25.2292 17.5781 25.2969 17.4948 25.2969 17.3281C25.2969 17.1927 25.2083 17.0573 25.0312 16.9219C24.8542 16.776 24.6458 16.6562 24.4062 16.5625C24.1667 16.4688 23.9688 16.4219 23.8125 16.4219ZM31.5781 27.2969C31.5781 28.1719 31.6406 29.5104 31.7656 31.3125C31.8906 33.1042 32.0469 34.776 32.2344 36.3281C32.4219 37.8802 32.599 38.8385 32.7656 39.2031C32.9427 39.5885 33.2135 39.9635 33.5781 40.3281C33.9531 40.6823 34.3594 40.9688 34.7969 41.1875C35.2448 41.4062 35.6667 41.5156 36.0625 41.5156C36.8229 41.5156 37.5729 41.3646 38.3125 41.0625C38.6979 40.9062 39.0104 40.6875 39.25 40.4062C39.4896 40.1146 39.6094 39.7812 39.6094 39.4062C39.6094 39.0938 39.5104 38.9375 39.3125 38.9375C39.0938 38.9375 38.8958 39.0729 38.7188 39.3438C38.1979 39.9583 37.4531 40.2656 36.4844 40.2656C35.9219 40.2656 35.3906 40.1562 34.8906 39.9375C34.401 39.7188 34.026 39.4115 33.7656 39.0156C33.5677 38.724 33.3646 37.8385 33.1562 36.3594C32.9583 34.8698 32.7917 33.25 32.6562 31.5C32.5208 29.75 32.4531 28.4375 32.4531 27.5625L32.4219 25.8906L32.3906 24.1094C32.3906 23.4427 32.4167 22.7969 32.4688 22.1719C32.5208 21.5677 32.625 20.974 32.7812 20.3906C32.9479 19.8073 33.1562 19.3333 33.4062 18.9688C33.6875 18.5625 34.0625 18.2396 34.5312 18C35.0104 17.7604 35.5521 17.6406 36.1562 17.6406C36.3542 17.6406 36.6458 17.7135 37.0312 17.8594C37.3958 18.0156 37.6406 18.0938 37.7656 18.0938C38.099 18.0938 38.2656 17.974 38.2656 17.7344C38.2656 17.526 38.1667 17.3333 37.9688 17.1562C37.7708 16.9688 37.526 16.8229 37.2344 16.7188C36.9427 16.6042 36.6719 16.5469 36.4219 16.5469C35.7865 16.5469 35.2344 16.6146 34.7656 16.75C34.2656 16.8854 33.849 17.0677 33.5156 17.2969C33.1823 17.5156 32.8958 17.8073 32.6562 18.1719C32.4062 18.5365 32.2083 18.9115 32.0625 19.2969C31.9271 19.6823 31.8229 20.1458 31.75 20.6875C31.6771 21.2188 31.625 21.7292 31.5938 22.2188C31.5625 22.7083 31.5469 23.2917 31.5469 23.9688C31.5469 24.5625 31.5521 25.1042 31.5625 25.5938C31.5729 26.0938 31.5781 26.6615 31.5781 27.2969Z" fill="#ECCD5E" fill-opacity="0.7"/>
</g>
<g filter="url(#filter1_d_8_8200)">
<path d="M23.3125 16.4219C22.6354 16.4219 22.0417 16.6667 21.5312 17.1562C21.0521 17.6354 20.6927 18.1979 20.4531 18.8438C20.224 19.4896 20.1094 20.1667 20.1094 20.875C20.1094 21.9062 20.2656 22.9375 20.5781 23.9688C20.8177 24.75 21.0938 25.4844 21.4062 26.1719C21.7188 26.849 22.1302 27.6771 22.6406 28.6562L23.0781 29.5C23.5677 30.4479 23.9583 31.4583 24.25 32.5312C24.5417 33.5938 24.6875 34.6458 24.6875 35.6875C24.6875 36.1458 24.6354 36.6562 24.5312 37.2188C24.4271 37.7812 24.2708 38.349 24.0625 38.9219C23.8438 39.5365 23.5365 40.0365 23.1406 40.4219C22.7552 40.8073 22.3229 41 21.8438 41C21.6354 41 21.349 40.9167 20.9844 40.75C20.599 40.5938 20.2969 40.5156 20.0781 40.5156C19.849 40.5156 19.7344 40.6458 19.7344 40.9062C19.8802 41.1562 20.0781 41.3385 20.3281 41.4531C20.5677 41.5677 20.7812 41.6354 20.9688 41.6562C21.1667 41.6875 21.4583 41.7031 21.8438 41.7031C22.4792 41.7031 23.0677 41.5104 23.6094 41.125C24.151 40.75 24.5833 40.25 24.9062 39.625C25.2083 39.0312 25.4375 38.4062 25.5938 37.75C25.7604 37.0833 25.8438 36.4479 25.8438 35.8438C25.8438 34.8646 25.7292 33.901 25.5 32.9531C25.3229 32.2031 25.1094 31.5208 24.8594 30.9062C24.6094 30.2812 24.2656 29.526 23.8281 28.6406L23.5312 28.0156C23.125 27.1927 22.75 26.4115 22.4062 25.6719C22.0417 24.9115 21.75 24.0885 21.5312 23.2031C21.3125 22.3177 21.2031 21.4531 21.2031 20.6094C21.2031 20.1094 21.2812 19.6198 21.4375 19.1406C21.6042 18.6094 21.875 18.1615 22.25 17.7969C22.6354 17.4323 23.0677 17.25 23.5469 17.25C23.7031 17.25 23.8802 17.3021 24.0781 17.4062C24.2865 17.5208 24.4583 17.5781 24.5938 17.5781C24.7292 17.5781 24.7969 17.4948 24.7969 17.3281C24.7969 17.1927 24.7083 17.0573 24.5312 16.9219C24.3542 16.776 24.1458 16.6562 23.9062 16.5625C23.6667 16.4688 23.4688 16.4219 23.3125 16.4219ZM31.0781 27.2969C31.0781 28.1719 31.1406 29.5104 31.2656 31.3125C31.3906 33.1042 31.5469 34.776 31.7344 36.3281C31.9219 37.8802 32.099 38.8385 32.2656 39.2031C32.4427 39.5885 32.7135 39.9635 33.0781 40.3281C33.4531 40.6823 33.8594 40.9688 34.2969 41.1875C34.7448 41.4062 35.1667 41.5156 35.5625 41.5156C36.3229 41.5156 37.0729 41.3646 37.8125 41.0625C38.1979 40.9062 38.5104 40.6875 38.75 40.4062C38.9896 40.1146 39.1094 39.7812 39.1094 39.4062C39.1094 39.0938 39.0104 38.9375 38.8125 38.9375C38.5938 38.9375 38.3958 39.0729 38.2188 39.3438C37.6979 39.9583 36.9531 40.2656 35.9844 40.2656C35.4219 40.2656 34.8906 40.1562 34.3906 39.9375C33.901 39.7188 33.526 39.4115 33.2656 39.0156C33.0677 38.724 32.8646 37.8385 32.6562 36.3594C32.4583 34.8698 32.2917 33.25 32.1562 31.5C32.0208 29.75 31.9531 28.4375 31.9531 27.5625L31.9219 25.8906L31.8906 24.1094C31.8906 23.4427 31.9167 22.7969 31.9688 22.1719C32.0208 21.5677 32.125 20.974 32.2812 20.3906C32.4479 19.8073 32.6562 19.3333 32.9062 18.9688C33.1875 18.5625 33.5625 18.2396 34.0312 18C34.5104 17.7604 35.0521 17.6406 35.6562 17.6406C35.8542 17.6406 36.1458 17.7135 36.5312 17.8594C36.8958 18.0156 37.1406 18.0938 37.2656 18.0938C37.599 18.0938 37.7656 17.974 37.7656 17.7344C37.7656 17.526 37.6667 17.3333 37.4688 17.1562C37.2708 16.9688 37.026 16.8229 36.7344 16.7188C36.4427 16.6042 36.1719 16.5469 35.9219 16.5469C35.2865 16.5469 34.7344 16.6146 34.2656 16.75C33.7656 16.8854 33.349 17.0677 33.0156 17.2969C32.6823 17.5156 32.3958 17.8073 32.1562 18.1719C31.9062 18.5365 31.7083 18.9115 31.5625 19.2969C31.4271 19.6823 31.3229 20.1458 31.25 20.6875C31.1771 21.2188 31.125 21.7292 31.0938 22.2188C31.0625 22.7083 31.0469 23.2917 31.0469 23.9688C31.0469 24.5625 31.0521 25.1042 31.0625 25.5938C31.0729 26.0938 31.0781 26.6615 31.0781 27.2969Z" fill="#ECCD5E" fill-opacity="0.7" shape-rendering="crispEdges"/>
</g>
<g filter="url(#filter2_f_8_8200)">
<circle cx="29" cy="29" r="24" stroke="#ECCD5E" stroke-opacity="0.8" stroke-width="2"/>
</g>
<g filter="url(#filter3_i_8_8200)">
<circle cx="29" cy="29" r="24" stroke="#FCDB66" stroke-opacity="0.5" stroke-width="2"/>
</g>
<defs>
<filter id="filter0_f_8_8200" x="16.2344" y="12.4219" width="27.375" height="33.2812" filterUnits="userSpaceOnUse" color-interpolation-filters="sRGB">
<feFlood flood-opacity="0" result="BackgroundImageFix"/>
<feBlend mode="normal" in="SourceGraphic" in2="BackgroundImageFix" result="shape"/>
<feGaussianBlur stdDeviation="2" result="effect1_foregroundBlur_8_8200"/>
</filter>
<filter id="filter1_d_8_8200" x="15.7344" y="16.4219" width="27.375" height="33.2812" filterUnits="userSpaceOnUse" color-interpolation-filters="sRGB">
<feFlood flood-opacity="0" result="BackgroundImageFix"/>
<feColorMatrix in="SourceAlpha" type="matrix" values="0 0 0 0 0 0 0 0 0 0 0 0 0 0 0 0 0 0 127 0" result="hardAlpha"/>
<feOffset dy="4"/>
<feGaussianBlur stdDeviation="2"/>
<feComposite in2="hardAlpha" operator="out"/>
<feColorMatrix type="matrix" values="0 0 0 0 0 0 0 0 0 0 0 0 0 0 0 0 0 0 0.25 0"/>
<feBlend mode="normal" in2="BackgroundImageFix" result="effect1_dropShadow_8_8200"/>
<feBlend mode="normal" in="SourceGraphic" in2="effect1_dropShadow_8_8200" result="shape"/>
</filter>
<filter id="filter2_f_8_8200" x="0" y="0" width="58" height="58" filterUnits="userSpaceOnUse" color-interpolation-filters="sRGB">
<feFlood flood-opacity="0" result="BackgroundImageFix"/>
<feBlend mode="normal" in="SourceGraphic" in2="BackgroundImageFix" result="shape"/>
<feGaussianBlur stdDeviation="2" result="effect1_foregroundBlur_8_8200"/>
</filter>
<filter id="filter3_i_8_8200" x="4" y="4" width="50" height="54" filterUnits="userSpaceOnUse" color-interpolation-filters="sRGB">
<feFlood flood-opacity="0" result="BackgroundImageFix"/>
<feBlend mode="normal" in="SourceGraphic" in2="BackgroundImageFix" result="shape"/>
<feColorMatrix in="SourceAlpha" type="matrix" values="0 0 0 0 0 0 0 0 0 0 0 0 0 0 0 0 0 0 127 0" result="hardAlpha"/>
<feOffset dy="4"/>
<feGaussianBlur stdDeviation="2"/>
<feComposite in2="hardAlpha" operator="arithmetic" k2="-1" k3="1"/>
<feColorMatrix type="matrix" values="0 0 0 0 0 0 0 0 0 0 0 0 0 0 0 0 0 0 0.25 0"/>
<feBlend mode="normal" in2="shape" result="effect1_innerShadow_8_8200"/>
</filter>
</defs>
</svg>
