<svg width="294" height="294" viewBox="0 0 294 294" fill="none" xmlns="http://www.w3.org/2000/svg">
<g filter="url(#filter0_f_8_8184)">
<path d="M60.7188 129.219C60.7812 129.615 61.0104 129.948 61.4062 130.219C61.8229 130.51 62.2812 130.698 62.7812 130.781L63.0938 130.625C64.1354 130.625 65.0729 130.375 65.9062 129.875C66.6979 129.417 67.3438 128.823 67.8438 128.094C68.3646 127.344 68.8125 126.438 69.1875 125.375C69.7708 123.688 70.0625 121.771 70.0625 119.625C70.0625 118.312 69.9896 117.146 69.8438 116.125C69.6771 115 69.4896 114.052 69.2812 113.281C69.0729 112.51 68.7604 111.667 68.3438 110.75C67.9479 109.896 67.5521 109.115 67.1562 108.406C66.7604 107.698 66.2708 106.854 65.6875 105.875L65.1875 105.031L64.0625 103.062L63.5938 101.906L63.2812 100.781C63.0521 100.115 62.9271 99.6875 62.9062 99.5L62.6875 98.4375C62.4792 97.6042 62.375 96.7708 62.375 95.9375C62.375 94.625 62.6354 93.1875 63.1562 91.625C63.4271 90.7917 63.8125 90.125 64.3125 89.625C64.8125 89.1042 65.3854 88.8438 66.0312 88.8438C66.2188 88.8438 66.4479 88.9062 66.7188 89.0312C67.0104 89.1562 67.2292 89.2188 67.375 89.2188C67.9375 89.2188 68.2188 89.0521 68.2188 88.7188C68.2188 88.2812 67.9375 87.875 67.375 87.5C66.8333 87.125 66.3021 86.9375 65.7812 86.9375C64.9479 86.9375 64.1875 87.25 63.5 87.875C62.8125 88.4792 62.2708 89.2812 61.875 90.2812C61.5 91.2188 61.2083 92.1667 61 93.125C60.8125 94.0625 60.7188 94.9167 60.7188 95.6875C60.7188 97.3958 60.9896 99.0938 61.5312 100.781C61.9062 102.01 62.3438 103.125 62.8438 104.125C63.3438 105.125 64.0417 106.438 64.9375 108.062L65.6875 109.406C66.5 110.885 67.1562 112.438 67.6562 114.062C68.1562 115.688 68.4062 117.292 68.4062 118.875C68.4062 120.917 68.0938 123 67.4688 125.125C67.1146 126.333 66.5729 127.312 65.8438 128.062C65.1354 128.792 64.3021 129.156 63.3438 129.156C63.0521 129.156 62.6562 129.083 62.1562 128.938C61.7396 128.833 61.3646 128.76 61.0312 128.719L60.7188 129.219ZM67.8125 88.9688C67.8542 88.9688 67.875 88.9896 67.875 89.0312H67.8125V88.9688ZM86.625 105.156C86.6667 106.177 86.9167 107.823 87.375 110.094C87.8542 112.365 88.4688 114.885 89.2188 117.656C89.9896 120.406 90.8229 122.99 91.7188 125.406C93.1146 129.24 94.3125 131.156 95.3125 131.156C95.625 131.156 95.8854 131.062 96.0938 130.875C96.3021 130.708 96.4062 130.479 96.4062 130.188C96.4062 129.792 96.3021 129.385 96.0938 128.969C95.9062 128.531 95.6042 128.031 95.1875 127.469C94.8542 127.052 94.5938 126.677 94.4062 126.344C93.7396 125.073 92.9271 122.969 91.9688 120.031C91.0312 117.094 90.2083 114.167 89.5 111.25C88.8125 108.333 88.4688 106.26 88.4688 105.031L88.5312 103L88.5938 100.938C90.5312 96.8958 92.8125 92.9479 95.4375 89.0938C95.375 88.3854 94.8021 88.0312 93.7188 88.0312C93.4271 88.0312 91.8333 90.8854 88.9375 96.5938C86.0208 102.323 84.3542 105.271 83.9375 105.438C83.9375 103.604 83.9792 101.344 84.0625 98.6562C84.1458 95.9688 84.1875 93.7188 84.1875 91.9062C84.1875 90.5521 84.375 89.5312 84.75 88.8438C84.75 88.5312 84.625 88.25 84.375 88C84.125 87.75 83.8438 87.625 83.5312 87.625C82.9688 87.625 82.5625 87.8646 82.3125 88.3438V97.2188C82.3125 98.7188 82.2083 100.781 82 103.406C81.7917 106.052 81.6875 108.115 81.6875 109.594C81.6875 110.49 81.5938 111.833 81.4062 113.625C81.1979 115.312 81.0938 116.656 81.0938 117.656V129.688C81.0938 130.229 81.1875 130.583 81.375 130.75C81.5625 130.938 81.9375 131.031 82.5 131.031C82.7708 131.031 83.0104 130.958 83.2188 130.812C83.4271 130.667 83.5312 130.479 83.5312 130.25C83.5312 129.792 83.4583 129.188 83.3125 128.438C83.1667 127.688 83.0938 127.073 83.0938 126.594V118.406C83.0938 118.01 83.1458 117.24 83.25 116.094C83.3542 114.948 83.4062 114.188 83.4062 113.812C83.4062 113.042 83.5208 112.198 83.75 111.281C83.9583 110.469 84.1458 109.844 84.3125 109.406C84.5 108.969 84.8854 108.156 85.4688 106.969L86.4688 104.906L86.625 105.156ZM108.875 129.375C109.042 129.792 109.625 130 110.625 130C110.896 130 111.26 129.875 111.719 129.625C112.219 129.396 112.615 129.281 112.906 129.281C113.156 129.281 113.51 129.312 113.969 129.375C114.385 129.458 114.74 129.5 115.031 129.5C115.427 129.5 115.76 129.385 116.031 129.156C116.302 128.906 116.438 128.594 116.438 128.219C116.438 127.615 115.802 127.312 114.531 127.312C114.177 127.312 113.865 127.323 113.594 127.344C113.323 127.365 113.01 127.375 112.656 127.375C111.719 127.375 111.25 127.167 111.25 126.75L111.312 126.594C111.188 126.406 111.125 125.812 111.125 124.812C111.125 124.354 111.135 123.969 111.156 123.656L111.188 122.844C111.188 121.073 111.115 118.729 110.969 115.812C110.823 112.917 110.75 110.583 110.75 108.812C110.75 107.125 110.781 104.583 110.844 101.188C110.906 97.8125 110.938 95.2812 110.938 93.5938C110.938 91.6979 110.875 90.5625 110.75 90.1875L111.062 90C111.958 90 112.573 90.125 112.906 90.375L114.375 90.25C114.479 90 114.531 89.8333 114.531 89.75C114.531 89.2917 114.156 88.9271 113.406 88.6562C112.552 88.3438 111.573 88.1458 110.469 88.0625C108.635 87.8958 107.021 87.8125 105.625 87.8125C105.354 87.8125 105.031 87.9062 104.656 88.0938C104.281 88.2604 104.094 88.4271 104.094 88.5938C104.094 89.3229 104.5 89.6875 105.312 89.6875L106.094 89.625L106.844 89.5625C107.719 89.5625 108.354 89.625 108.75 89.75C108.958 91.6875 109.062 94.1562 109.062 97.1562C109.062 98.4271 109.01 100.906 108.906 104.594C108.802 108.302 108.75 110.802 108.75 112.094C108.75 113.469 108.833 115.802 109 119.094C109.146 121.99 109.219 124.323 109.219 126.094C109.219 126.24 109.188 126.49 109.125 126.844C109.042 127.156 109 127.354 109 127.438L108.75 127.688H106.906L106.531 128.031C106.344 128.156 106.219 128.271 106.156 128.375C106.094 128.479 106.062 128.615 106.062 128.781C106.312 129.219 106.896 129.438 107.812 129.438C108 129.438 108.177 129.427 108.344 129.406C108.49 129.385 108.667 129.375 108.875 129.375ZM138.375 116.938C138.583 117.583 138.979 118.698 139.562 120.281C140.688 123.302 141.396 125.75 141.688 127.625L141.625 127.812C141.729 127.979 141.823 128.281 141.906 128.719C142.01 129.219 142.146 129.604 142.312 129.875C142.479 130.125 142.719 130.25 143.031 130.25C143.115 130.25 143.344 130.198 143.719 130.094L143.75 130.125V130.094C144.25 129.948 144.615 129.854 144.844 129.812C145.115 129.271 145.406 126.667 145.719 122C146.031 117.333 146.302 112.208 146.531 106.625C146.76 101.042 146.875 97.0833 146.875 94.75L147.219 94.2188V89.9375C147.219 89.4792 147.083 89.0625 146.812 88.6875C146.542 88.2917 146.208 88.0938 145.812 88.0938C145.208 88.0938 144.906 88.5417 144.906 89.4375L144.969 90.25L145.031 91.0312C145.031 104.865 144.542 116.49 143.562 125.906L143.438 126.094C142.833 125.052 142.302 123.865 141.844 122.531C141.406 121.177 140.979 119.562 140.562 117.688C140.146 115.958 139.802 114.646 139.531 113.75C138.76 111.375 137.24 107.552 134.969 102.281C132.635 96.8646 131.104 92.625 130.375 89.5625L130.312 89.2188L130.219 88.8438C130.135 88.6146 130.042 88.4271 129.938 88.2812C129.75 88.0938 129.552 87.9583 129.344 87.875L128.719 88.0312L128.531 87.8125C127.76 88.4583 127.375 89.8333 127.375 91.9375V92.75C127.375 93.9792 127.312 95.8646 127.188 98.4062C127.042 100.76 126.969 102.656 126.969 104.094C126.969 106.427 127.042 109.49 127.188 113.281C127.312 117.365 127.375 120.438 127.375 122.5C127.375 123.083 127.333 123.781 127.25 124.594C127.167 125.427 127.125 126.125 127.125 126.688C127.125 128.979 127.573 130.125 128.469 130.125C128.823 130.125 129.104 130 129.312 129.75C129.542 129.479 129.656 129.177 129.656 128.844C129.656 128.24 129.573 127.792 129.406 127.5V121.75C129.115 120.979 128.969 117.052 128.969 109.969H129.156L129.031 107.906C128.948 106.99 128.906 106.188 128.906 105.5L128.969 103.969L129.031 102.406L128.969 99.9062L128.906 97.375C128.906 95.6458 129.073 94.1458 129.406 92.875C130.406 93.8333 132.823 100.26 136.656 112.156C137.656 115.177 138.229 116.771 138.375 116.938ZM167.062 131.031C167.604 130.823 168.146 130.51 168.688 130.094C169.229 129.698 169.5 129.344 169.5 129.031C169.5 128.573 169.177 128.344 168.531 128.344C168.094 128.719 167.562 128.906 166.938 128.906C165.917 128.906 165.021 128.74 164.25 128.406C163.479 128.052 162.854 127.542 162.375 126.875C161.875 126.167 161.469 125.458 161.156 124.75C160.844 124.021 160.625 123.188 160.5 122.25C160.375 121.292 160.281 120.438 160.219 119.688C160.177 118.938 160.156 118.062 160.156 117.062C160.156 115.333 160.198 113.188 160.281 110.625C160.365 108.062 160.406 105.906 160.406 104.156L160.531 103.812C160.531 102.958 160.562 102.031 160.625 101.031C160.688 99.9271 160.823 98.6458 161.031 97.1875C161.26 95.7292 161.531 94.4792 161.844 93.4375C162.219 92.2292 162.729 91.2396 163.375 90.4688C164.021 89.6771 164.76 89.2812 165.594 89.2812H168.281L169.125 88.3438C169.125 88.2396 169.104 88.1042 169.062 87.9375C169.042 87.875 168.979 87.7917 168.875 87.6875C168.854 87.6667 168.76 87.6146 168.594 87.5312C168.552 87.5312 168.438 87.5 168.25 87.4375C168.188 87.4375 168.135 87.4271 168.094 87.4062L167.906 87.375H165.344C164.948 87.5833 164.417 87.8125 163.75 88.0625C162.979 88.375 162.396 88.6771 162 88.9688C161.229 89.5521 160.573 90.5208 160.031 91.875C159.49 93.1875 159.083 94.5 158.812 95.8125C158.562 97.125 158.375 98.7604 158.25 100.719C158.125 102.51 158.042 103.885 158 104.844C157.979 105.781 157.969 107.083 157.969 108.75V116.062C157.969 117.646 158.01 118.927 158.094 119.906C158.281 123.115 158.812 125.552 159.688 127.219C160.208 128.177 160.76 128.896 161.344 129.375C161.927 129.854 162.625 130.219 163.438 130.469C164.146 130.677 164.646 130.865 164.938 131.031H167.062ZM183.312 120.156C183.708 120.156 184.448 120.208 185.531 120.312C186.615 120.417 187.396 120.469 187.875 120.469C189.208 120.469 190.26 120.573 191.031 120.781L192.094 129.156C192.156 129.615 192.229 129.938 192.312 130.125C192.396 130.312 192.531 130.427 192.719 130.469C192.906 130.531 193.229 130.562 193.688 130.562C194.021 130.375 194.188 130.062 194.188 129.625V129.438C192.333 114.792 191.146 104.458 190.625 98.4375L190.25 95.0625C190.083 93.6042 189.958 92.375 189.875 91.375C189.812 90.3542 189.781 89.2396 189.781 88.0312C189.781 87.7604 189.656 87.5312 189.406 87.3438C189.177 87.1562 188.917 87.0625 188.625 87.0625C188.375 87.3125 187.99 87.4375 187.469 87.4375C187.302 87.4375 187.156 87.4271 187.031 87.4062L186.594 87.375C186.49 87.5625 186.354 88.1979 186.188 89.2812C186.083 89.8646 185.979 90.7292 185.875 91.875L185.75 92.9062L185.5 95.25C185.292 96.6042 184.917 98.5833 184.375 101.188C183.812 103.729 183.438 105.594 183.25 106.781L182.562 111L182.188 113.25C182.042 114.208 181.896 115.073 181.75 115.844L181.031 119.812C180.448 123.104 179.802 126.115 179.094 128.844L179.031 129.031L178.969 129.219C178.969 129.469 179.115 129.719 179.406 129.969C179.698 130.198 179.979 130.312 180.25 130.312C180.583 130.312 180.906 129.948 181.219 129.219C181.49 128.51 181.74 127.615 181.969 126.531C182.344 124.552 182.583 123.021 182.688 121.938L182.812 120.656C182.833 120.635 182.844 120.604 182.844 120.562C182.844 120.521 182.854 120.479 182.875 120.438C182.896 120.333 182.938 120.26 183 120.219C183.062 120.177 183.167 120.156 183.312 120.156ZM183.375 118.25C183.375 116.896 183.865 113.792 184.844 108.938C184.948 108.521 186.104 102.823 188.312 91.8438C189.625 105.51 190.438 114.583 190.75 119.062H190.094C188.906 119.062 187.49 118.979 185.844 118.812C184.198 118.646 183.375 118.458 183.375 118.25ZM214.469 131.094C214.948 131.094 215.188 130.792 215.188 130.188C215.188 129.812 215.021 129.302 214.688 128.656C214.458 128.219 214.312 127.938 214.25 127.812C214.188 127.667 214.156 127.583 214.156 127.562C214.031 127.229 213.156 123.729 211.531 117.062C209.906 110.396 209.094 106.99 209.094 106.844C209.094 106.781 209.375 106.24 209.938 105.219C210.583 103.99 211.156 102.708 211.656 101.375C212.177 100.042 212.438 98.9792 212.438 98.1875V93.5312C212.438 91.5521 211.771 90.0208 210.438 88.9375C209.125 87.8542 207.396 87.3125 205.25 87.3125C204.854 87.3125 204.542 87.4583 204.312 87.75C204.104 88.0208 203.969 88.2917 203.906 88.5625C203.865 88.8333 203.844 89.2292 203.844 89.75C203.844 98.1458 204.188 111.583 204.875 130.062L205.344 130.562H206.281L206.75 129.5C206.542 128.792 206.365 126.552 206.219 122.781C205.844 115.74 205.656 111.062 205.656 108.75C205.656 108.146 206.125 107.844 207.062 107.844H207.312C207.771 107.844 208.26 108.917 208.781 111.062C209.344 113.354 209.833 115.76 210.25 118.281C210.75 121.281 211.292 123.979 211.875 126.375C212.479 128.75 213.031 130.219 213.531 130.781L214.469 131.094ZM205.906 106.125C205.906 104.021 205.865 101.438 205.781 98.375C205.698 95.3125 205.656 92.7292 205.656 90.625C205.656 90.25 205.719 89.8854 205.844 89.5312C205.99 89.1562 206.177 88.9688 206.406 88.9688C207.344 88.9688 208.115 89.1667 208.719 89.5625C209.344 89.9375 209.792 90.4896 210.062 91.2188C210.312 91.9271 210.479 92.6042 210.562 93.25C210.667 93.8958 210.719 94.7083 210.719 95.6875C210.719 96.4375 210.625 97.3646 210.438 98.4688C210.271 99.5729 210.021 100.719 209.688 101.906C209.354 103.156 208.854 104.198 208.188 105.031C207.542 105.844 206.823 106.25 206.031 106.25L205.906 106.125ZM224.688 127.875C224.688 128.167 224.677 128.438 224.656 128.688C224.635 128.938 224.625 129.208 224.625 129.5C224.688 130.396 225.115 130.844 225.906 130.844H231.188C233.042 130.844 233.969 130.458 233.969 129.688C233.969 129.125 233.344 128.844 232.094 128.844L230.875 128.906L229.719 128.969C228.698 128.969 228 128.812 227.625 128.5C227.25 128.167 227.031 127.51 226.969 126.531C226.844 124.802 226.781 123.104 226.781 121.438L226.844 116.875L226.906 112.344C226.906 109.948 226.865 108.26 226.781 107.281V107.094L227.094 106.781H227.375L229.469 107.094C229.74 107.427 230.229 107.594 230.938 107.594C231.333 107.594 231.646 107.438 231.875 107.125C232.104 106.792 232.219 106.396 232.219 105.938C232.198 105.167 231.365 104.781 229.719 104.781C229.615 104.781 229.25 104.802 228.625 104.844L227.562 104.906C226.958 104.906 226.656 104.312 226.656 103.125C226.656 101.792 226.698 100.135 226.781 98.1562C226.865 96.1771 226.906 94.5208 226.906 93.1875C226.906 92.1458 226.885 91.2292 226.844 90.4375L227.156 90.0625C228.281 90.1042 230.01 90.5104 232.344 91.2812C233.135 90.8229 233.531 90.3958 233.531 90C233.531 89.6042 233.135 89.2812 232.344 89.0312C231.552 88.7812 230.625 88.5938 229.562 88.4688C228.583 88.3646 227.958 88.2812 227.688 88.2188C227.479 87.9479 227.135 87.8125 226.656 87.8125C225.99 87.8125 225.51 87.9583 225.219 88.25C224.948 88.5417 224.812 89 224.812 89.625C224.812 90.6667 224.854 91.9375 224.938 93.4375C225.021 94.9583 225.062 96.2396 225.062 97.2812C225.062 99.7188 224.99 102.938 224.844 106.938C224.698 110.938 224.625 114.146 224.625 116.562C224.625 117.292 224.677 118.698 224.781 120.781C224.885 122.865 224.938 124.271 224.938 125C224.938 125.896 224.781 126.771 224.469 127.625L224.688 127.875ZM97.6875 224.031C98.2292 223.823 98.7708 223.51 99.3125 223.094C99.8542 222.698 100.125 222.344 100.125 222.031C100.125 221.573 99.8021 221.344 99.1562 221.344C98.7188 221.719 98.1875 221.906 97.5625 221.906C96.5417 221.906 95.6458 221.74 94.875 221.406C94.1042 221.052 93.4792 220.542 93 219.875C92.5 219.167 92.0938 218.458 91.7812 217.75C91.4688 217.021 91.25 216.188 91.125 215.25C91 214.292 90.9062 213.438 90.8438 212.688C90.8021 211.938 90.7812 211.062 90.7812 210.062C90.7812 208.333 90.8229 206.188 90.9062 203.625C90.9896 201.062 91.0312 198.906 91.0312 197.156L91.1562 196.812C91.1562 195.958 91.1875 195.031 91.25 194.031C91.3125 192.927 91.4479 191.646 91.6562 190.188C91.8854 188.729 92.1562 187.479 92.4688 186.438C92.8438 185.229 93.3542 184.24 94 183.469C94.6458 182.677 95.3854 182.281 96.2188 182.281H98.9062L99.75 181.344C99.75 181.24 99.7292 181.104 99.6875 180.938C99.6667 180.875 99.6042 180.792 99.5 180.688C99.4792 180.667 99.3854 180.615 99.2188 180.531C99.1771 180.531 99.0625 180.5 98.875 180.438C98.8125 180.438 98.7604 180.427 98.7188 180.406L98.5312 180.375H95.9688C95.5729 180.583 95.0417 180.812 94.375 181.062C93.6042 181.375 93.0208 181.677 92.625 181.969C91.8542 182.552 91.1979 183.521 90.6562 184.875C90.1146 186.188 89.7083 187.5 89.4375 188.812C89.1875 190.125 89 191.76 88.875 193.719C88.75 195.51 88.6667 196.885 88.625 197.844C88.6042 198.781 88.5938 200.083 88.5938 201.75V209.062C88.5938 210.646 88.6354 211.927 88.7188 212.906C88.9062 216.115 89.4375 218.552 90.3125 220.219C90.8333 221.177 91.3854 221.896 91.9688 222.375C92.5521 222.854 93.25 223.219 94.0625 223.469C94.7708 223.677 95.2708 223.865 95.5625 224.031H97.6875ZM115.125 222.375C115.292 222.792 115.875 223 116.875 223C117.146 223 117.51 222.875 117.969 222.625C118.469 222.396 118.865 222.281 119.156 222.281C119.406 222.281 119.76 222.312 120.219 222.375C120.635 222.458 120.99 222.5 121.281 222.5C121.677 222.5 122.01 222.385 122.281 222.156C122.552 221.906 122.688 221.594 122.688 221.219C122.688 220.615 122.052 220.312 120.781 220.312C120.427 220.312 120.115 220.323 119.844 220.344C119.573 220.365 119.26 220.375 118.906 220.375C117.969 220.375 117.5 220.167 117.5 219.75L117.562 219.594C117.438 219.406 117.375 218.812 117.375 217.812C117.375 217.354 117.385 216.969 117.406 216.656L117.438 215.844C117.438 214.073 117.365 211.729 117.219 208.812C117.073 205.917 117 203.583 117 201.812C117 200.125 117.031 197.583 117.094 194.188C117.156 190.812 117.188 188.281 117.188 186.594C117.188 184.698 117.125 183.562 117 183.188L117.312 183C118.208 183 118.823 183.125 119.156 183.375L120.625 183.25C120.729 183 120.781 182.833 120.781 182.75C120.781 182.292 120.406 181.927 119.656 181.656C118.802 181.344 117.823 181.146 116.719 181.062C114.885 180.896 113.271 180.812 111.875 180.812C111.604 180.812 111.281 180.906 110.906 181.094C110.531 181.26 110.344 181.427 110.344 181.594C110.344 182.323 110.75 182.688 111.562 182.688L112.344 182.625L113.094 182.562C113.969 182.562 114.604 182.625 115 182.75C115.208 184.688 115.312 187.156 115.312 190.156C115.312 191.427 115.26 193.906 115.156 197.594C115.052 201.302 115 203.802 115 205.094C115 206.469 115.083 208.802 115.25 212.094C115.396 214.99 115.469 217.323 115.469 219.094C115.469 219.24 115.438 219.49 115.375 219.844C115.292 220.156 115.25 220.354 115.25 220.438L115 220.688H113.156L112.781 221.031C112.594 221.156 112.469 221.271 112.406 221.375C112.344 221.479 112.312 221.615 112.312 221.781C112.562 222.219 113.146 222.438 114.062 222.438C114.25 222.438 114.427 222.427 114.594 222.406C114.74 222.385 114.917 222.375 115.125 222.375ZM143.844 224.094C144.323 224.094 144.562 223.792 144.562 223.188C144.562 222.812 144.396 222.302 144.062 221.656C143.833 221.219 143.688 220.938 143.625 220.812C143.562 220.667 143.531 220.583 143.531 220.562C143.406 220.229 142.531 216.729 140.906 210.062C139.281 203.396 138.469 199.99 138.469 199.844C138.469 199.781 138.75 199.24 139.312 198.219C139.958 196.99 140.531 195.708 141.031 194.375C141.552 193.042 141.812 191.979 141.812 191.188V186.531C141.812 184.552 141.146 183.021 139.812 181.938C138.5 180.854 136.771 180.312 134.625 180.312C134.229 180.312 133.917 180.458 133.688 180.75C133.479 181.021 133.344 181.292 133.281 181.562C133.24 181.833 133.219 182.229 133.219 182.75C133.219 191.146 133.562 204.583 134.25 223.062L134.719 223.562H135.656L136.125 222.5C135.917 221.792 135.74 219.552 135.594 215.781C135.219 208.74 135.031 204.062 135.031 201.75C135.031 201.146 135.5 200.844 136.438 200.844H136.688C137.146 200.844 137.635 201.917 138.156 204.062C138.719 206.354 139.208 208.76 139.625 211.281C140.125 214.281 140.667 216.979 141.25 219.375C141.854 221.75 142.406 223.219 142.906 223.781L143.844 224.094ZM135.281 199.125C135.281 197.021 135.24 194.438 135.156 191.375C135.073 188.312 135.031 185.729 135.031 183.625C135.031 183.25 135.094 182.885 135.219 182.531C135.365 182.156 135.552 181.969 135.781 181.969C136.719 181.969 137.49 182.167 138.094 182.562C138.719 182.938 139.167 183.49 139.438 184.219C139.688 184.927 139.854 185.604 139.938 186.25C140.042 186.896 140.094 187.708 140.094 188.688C140.094 189.438 140 190.365 139.812 191.469C139.646 192.573 139.396 193.719 139.062 194.906C138.729 196.156 138.229 197.198 137.562 198.031C136.917 198.844 136.198 199.25 135.406 199.25L135.281 199.125ZM162.688 224.031C163.229 223.823 163.771 223.51 164.312 223.094C164.854 222.698 165.125 222.344 165.125 222.031C165.125 221.573 164.802 221.344 164.156 221.344C163.719 221.719 163.188 221.906 162.562 221.906C161.542 221.906 160.646 221.74 159.875 221.406C159.104 221.052 158.479 220.542 158 219.875C157.5 219.167 157.094 218.458 156.781 217.75C156.469 217.021 156.25 216.188 156.125 215.25C156 214.292 155.906 213.438 155.844 212.688C155.802 211.938 155.781 211.062 155.781 210.062C155.781 208.333 155.823 206.188 155.906 203.625C155.99 201.062 156.031 198.906 156.031 197.156L156.156 196.812C156.156 195.958 156.188 195.031 156.25 194.031C156.312 192.927 156.448 191.646 156.656 190.188C156.885 188.729 157.156 187.479 157.469 186.438C157.844 185.229 158.354 184.24 159 183.469C159.646 182.677 160.385 182.281 161.219 182.281H163.906L164.75 181.344C164.75 181.24 164.729 181.104 164.688 180.938C164.667 180.875 164.604 180.792 164.5 180.688C164.479 180.667 164.385 180.615 164.219 180.531C164.177 180.531 164.062 180.5 163.875 180.438C163.812 180.438 163.76 180.427 163.719 180.406L163.531 180.375H160.969C160.573 180.583 160.042 180.812 159.375 181.062C158.604 181.375 158.021 181.677 157.625 181.969C156.854 182.552 156.198 183.521 155.656 184.875C155.115 186.188 154.708 187.5 154.438 188.812C154.188 190.125 154 191.76 153.875 193.719C153.75 195.51 153.667 196.885 153.625 197.844C153.604 198.781 153.594 200.083 153.594 201.75V209.062C153.594 210.646 153.635 211.927 153.719 212.906C153.906 216.115 154.438 218.552 155.312 220.219C155.833 221.177 156.385 221.896 156.969 222.375C157.552 222.854 158.25 223.219 159.062 223.469C159.771 223.677 160.271 223.865 160.562 224.031H162.688ZM179.656 223.562C181.74 223.562 183.51 223.583 184.969 223.625C185.656 223.562 186 223.292 186 222.812C186 222.562 185.896 222.323 185.688 222.094C185.479 221.844 185.26 221.719 185.031 221.719H184.844L182.125 221.625C180.542 221.562 179.438 221.531 178.812 221.531C178.625 221.531 178.521 221.427 178.5 221.219C178.458 220.969 178.438 220.542 178.438 219.938V219.531L178.625 213.406C178.5 213.156 178.438 212.854 178.438 212.5C178.438 212.396 178.448 212.312 178.469 212.25C178.49 212.188 178.5 212.104 178.5 212L178.438 212.062L178.625 211.531L178.562 208.812L178.5 206.094C178.5 205.615 178.531 204.74 178.594 203.469L178.688 200.719C178.688 198.135 178.677 195.812 178.656 193.75C178.635 191.688 178.625 189.365 178.625 186.781C178.625 185.844 178.635 185 178.656 184.25C178.677 183.5 178.688 182.656 178.688 181.719C178.688 181.74 178.635 181.729 178.531 181.688C178.135 181.542 177.833 181.469 177.625 181.469C177.312 181.469 177.156 181.615 177.156 181.906L177 183.844C176.896 185.198 176.844 185.958 176.844 186.125C176.844 189.542 176.781 195.094 176.656 202.781C176.531 210.49 176.469 216.312 176.469 220.25C176.469 221.312 176.427 222.021 176.344 222.375C176.448 223.354 176.802 223.844 177.406 223.844C177.719 223.844 178.115 223.802 178.594 223.719C179.135 223.656 179.531 223.625 179.781 223.625L179.656 223.562ZM196.562 220.875C196.562 221.167 196.552 221.438 196.531 221.688C196.51 221.938 196.5 222.208 196.5 222.5C196.562 223.396 196.99 223.844 197.781 223.844H203.062C204.917 223.844 205.844 223.458 205.844 222.688C205.844 222.125 205.219 221.844 203.969 221.844L202.75 221.906L201.594 221.969C200.573 221.969 199.875 221.812 199.5 221.5C199.125 221.167 198.906 220.51 198.844 219.531C198.719 217.802 198.656 216.104 198.656 214.438L198.719 209.875L198.781 205.344C198.781 202.948 198.74 201.26 198.656 200.281V200.094L198.969 199.781H199.25L201.344 200.094C201.615 200.427 202.104 200.594 202.812 200.594C203.208 200.594 203.521 200.438 203.75 200.125C203.979 199.792 204.094 199.396 204.094 198.938C204.073 198.167 203.24 197.781 201.594 197.781C201.49 197.781 201.125 197.802 200.5 197.844L199.438 197.906C198.833 197.906 198.531 197.312 198.531 196.125C198.531 194.792 198.573 193.135 198.656 191.156C198.74 189.177 198.781 187.521 198.781 186.188C198.781 185.146 198.76 184.229 198.719 183.438L199.031 183.062C200.156 183.104 201.885 183.51 204.219 184.281C205.01 183.823 205.406 183.396 205.406 183C205.406 182.604 205.01 182.281 204.219 182.031C203.427 181.781 202.5 181.594 201.438 181.469C200.458 181.365 199.833 181.281 199.562 181.219C199.354 180.948 199.01 180.812 198.531 180.812C197.865 180.812 197.385 180.958 197.094 181.25C196.823 181.542 196.688 182 196.688 182.625C196.688 183.667 196.729 184.938 196.812 186.438C196.896 187.958 196.938 189.24 196.938 190.281C196.938 192.719 196.865 195.938 196.719 199.938C196.573 203.938 196.5 207.146 196.5 209.562C196.5 210.292 196.552 211.698 196.656 213.781C196.76 215.865 196.812 217.271 196.812 218C196.812 218.896 196.656 219.771 196.344 220.625L196.562 220.875Z" fill="#ECCD5E" fill-opacity="0.7"/>
</g>
<g filter="url(#filter1_d_8_8184)">
<path d="M60.7188 129.219C60.7812 129.615 61.0104 129.948 61.4062 130.219C61.8229 130.51 62.2812 130.698 62.7812 130.781L63.0938 130.625C64.1354 130.625 65.0729 130.375 65.9062 129.875C66.6979 129.417 67.3438 128.823 67.8438 128.094C68.3646 127.344 68.8125 126.438 69.1875 125.375C69.7708 123.688 70.0625 121.771 70.0625 119.625C70.0625 118.312 69.9896 117.146 69.8438 116.125C69.6771 115 69.4896 114.052 69.2812 113.281C69.0729 112.51 68.7604 111.667 68.3438 110.75C67.9479 109.896 67.5521 109.115 67.1562 108.406C66.7604 107.698 66.2708 106.854 65.6875 105.875L65.1875 105.031L64.0625 103.062L63.5938 101.906L63.2812 100.781C63.0521 100.115 62.9271 99.6875 62.9062 99.5L62.6875 98.4375C62.4792 97.6042 62.375 96.7708 62.375 95.9375C62.375 94.625 62.6354 93.1875 63.1562 91.625C63.4271 90.7917 63.8125 90.125 64.3125 89.625C64.8125 89.1042 65.3854 88.8438 66.0312 88.8438C66.2188 88.8438 66.4479 88.9062 66.7188 89.0312C67.0104 89.1562 67.2292 89.2188 67.375 89.2188C67.9375 89.2188 68.2188 89.0521 68.2188 88.7188C68.2188 88.2812 67.9375 87.875 67.375 87.5C66.8333 87.125 66.3021 86.9375 65.7812 86.9375C64.9479 86.9375 64.1875 87.25 63.5 87.875C62.8125 88.4792 62.2708 89.2812 61.875 90.2812C61.5 91.2188 61.2083 92.1667 61 93.125C60.8125 94.0625 60.7188 94.9167 60.7188 95.6875C60.7188 97.3958 60.9896 99.0938 61.5312 100.781C61.9062 102.01 62.3438 103.125 62.8438 104.125C63.3438 105.125 64.0417 106.438 64.9375 108.062L65.6875 109.406C66.5 110.885 67.1562 112.438 67.6562 114.062C68.1562 115.688 68.4062 117.292 68.4062 118.875C68.4062 120.917 68.0938 123 67.4688 125.125C67.1146 126.333 66.5729 127.312 65.8438 128.062C65.1354 128.792 64.3021 129.156 63.3438 129.156C63.0521 129.156 62.6562 129.083 62.1562 128.938C61.7396 128.833 61.3646 128.76 61.0312 128.719L60.7188 129.219ZM67.8125 88.9688C67.8542 88.9688 67.875 88.9896 67.875 89.0312H67.8125V88.9688ZM86.625 105.156C86.6667 106.177 86.9167 107.823 87.375 110.094C87.8542 112.365 88.4688 114.885 89.2188 117.656C89.9896 120.406 90.8229 122.99 91.7188 125.406C93.1146 129.24 94.3125 131.156 95.3125 131.156C95.625 131.156 95.8854 131.062 96.0938 130.875C96.3021 130.708 96.4062 130.479 96.4062 130.188C96.4062 129.792 96.3021 129.385 96.0938 128.969C95.9062 128.531 95.6042 128.031 95.1875 127.469C94.8542 127.052 94.5938 126.677 94.4062 126.344C93.7396 125.073 92.9271 122.969 91.9688 120.031C91.0312 117.094 90.2083 114.167 89.5 111.25C88.8125 108.333 88.4688 106.26 88.4688 105.031L88.5312 103L88.5938 100.938C90.5312 96.8958 92.8125 92.9479 95.4375 89.0938C95.375 88.3854 94.8021 88.0312 93.7188 88.0312C93.4271 88.0312 91.8333 90.8854 88.9375 96.5938C86.0208 102.323 84.3542 105.271 83.9375 105.438C83.9375 103.604 83.9792 101.344 84.0625 98.6562C84.1458 95.9688 84.1875 93.7188 84.1875 91.9062C84.1875 90.5521 84.375 89.5312 84.75 88.8438C84.75 88.5312 84.625 88.25 84.375 88C84.125 87.75 83.8438 87.625 83.5312 87.625C82.9688 87.625 82.5625 87.8646 82.3125 88.3438V97.2188C82.3125 98.7188 82.2083 100.781 82 103.406C81.7917 106.052 81.6875 108.115 81.6875 109.594C81.6875 110.49 81.5938 111.833 81.4062 113.625C81.1979 115.312 81.0938 116.656 81.0938 117.656V129.688C81.0938 130.229 81.1875 130.583 81.375 130.75C81.5625 130.938 81.9375 131.031 82.5 131.031C82.7708 131.031 83.0104 130.958 83.2188 130.812C83.4271 130.667 83.5312 130.479 83.5312 130.25C83.5312 129.792 83.4583 129.188 83.3125 128.438C83.1667 127.688 83.0938 127.073 83.0938 126.594V118.406C83.0938 118.01 83.1458 117.24 83.25 116.094C83.3542 114.948 83.4062 114.188 83.4062 113.812C83.4062 113.042 83.5208 112.198 83.75 111.281C83.9583 110.469 84.1458 109.844 84.3125 109.406C84.5 108.969 84.8854 108.156 85.4688 106.969L86.4688 104.906L86.625 105.156ZM108.875 129.375C109.042 129.792 109.625 130 110.625 130C110.896 130 111.26 129.875 111.719 129.625C112.219 129.396 112.615 129.281 112.906 129.281C113.156 129.281 113.51 129.312 113.969 129.375C114.385 129.458 114.74 129.5 115.031 129.5C115.427 129.5 115.76 129.385 116.031 129.156C116.302 128.906 116.438 128.594 116.438 128.219C116.438 127.615 115.802 127.312 114.531 127.312C114.177 127.312 113.865 127.323 113.594 127.344C113.323 127.365 113.01 127.375 112.656 127.375C111.719 127.375 111.25 127.167 111.25 126.75L111.312 126.594C111.188 126.406 111.125 125.812 111.125 124.812C111.125 124.354 111.135 123.969 111.156 123.656L111.188 122.844C111.188 121.073 111.115 118.729 110.969 115.812C110.823 112.917 110.75 110.583 110.75 108.812C110.75 107.125 110.781 104.583 110.844 101.188C110.906 97.8125 110.938 95.2812 110.938 93.5938C110.938 91.6979 110.875 90.5625 110.75 90.1875L111.062 90C111.958 90 112.573 90.125 112.906 90.375L114.375 90.25C114.479 90 114.531 89.8333 114.531 89.75C114.531 89.2917 114.156 88.9271 113.406 88.6562C112.552 88.3438 111.573 88.1458 110.469 88.0625C108.635 87.8958 107.021 87.8125 105.625 87.8125C105.354 87.8125 105.031 87.9062 104.656 88.0938C104.281 88.2604 104.094 88.4271 104.094 88.5938C104.094 89.3229 104.5 89.6875 105.312 89.6875L106.094 89.625L106.844 89.5625C107.719 89.5625 108.354 89.625 108.75 89.75C108.958 91.6875 109.062 94.1562 109.062 97.1562C109.062 98.4271 109.01 100.906 108.906 104.594C108.802 108.302 108.75 110.802 108.75 112.094C108.75 113.469 108.833 115.802 109 119.094C109.146 121.99 109.219 124.323 109.219 126.094C109.219 126.24 109.188 126.49 109.125 126.844C109.042 127.156 109 127.354 109 127.438L108.75 127.688H106.906L106.531 128.031C106.344 128.156 106.219 128.271 106.156 128.375C106.094 128.479 106.062 128.615 106.062 128.781C106.312 129.219 106.896 129.438 107.812 129.438C108 129.438 108.177 129.427 108.344 129.406C108.49 129.385 108.667 129.375 108.875 129.375ZM138.375 116.938C138.583 117.583 138.979 118.698 139.562 120.281C140.688 123.302 141.396 125.75 141.688 127.625L141.625 127.812C141.729 127.979 141.823 128.281 141.906 128.719C142.01 129.219 142.146 129.604 142.312 129.875C142.479 130.125 142.719 130.25 143.031 130.25C143.115 130.25 143.344 130.198 143.719 130.094L143.75 130.125V130.094C144.25 129.948 144.615 129.854 144.844 129.812C145.115 129.271 145.406 126.667 145.719 122C146.031 117.333 146.302 112.208 146.531 106.625C146.76 101.042 146.875 97.0833 146.875 94.75L147.219 94.2188V89.9375C147.219 89.4792 147.083 89.0625 146.812 88.6875C146.542 88.2917 146.208 88.0938 145.812 88.0938C145.208 88.0938 144.906 88.5417 144.906 89.4375L144.969 90.25L145.031 91.0312C145.031 104.865 144.542 116.49 143.562 125.906L143.438 126.094C142.833 125.052 142.302 123.865 141.844 122.531C141.406 121.177 140.979 119.562 140.562 117.688C140.146 115.958 139.802 114.646 139.531 113.75C138.76 111.375 137.24 107.552 134.969 102.281C132.635 96.8646 131.104 92.625 130.375 89.5625L130.312 89.2188L130.219 88.8438C130.135 88.6146 130.042 88.4271 129.938 88.2812C129.75 88.0938 129.552 87.9583 129.344 87.875L128.719 88.0312L128.531 87.8125C127.76 88.4583 127.375 89.8333 127.375 91.9375V92.75C127.375 93.9792 127.312 95.8646 127.188 98.4062C127.042 100.76 126.969 102.656 126.969 104.094C126.969 106.427 127.042 109.49 127.188 113.281C127.312 117.365 127.375 120.438 127.375 122.5C127.375 123.083 127.333 123.781 127.25 124.594C127.167 125.427 127.125 126.125 127.125 126.688C127.125 128.979 127.573 130.125 128.469 130.125C128.823 130.125 129.104 130 129.312 129.75C129.542 129.479 129.656 129.177 129.656 128.844C129.656 128.24 129.573 127.792 129.406 127.5V121.75C129.115 120.979 128.969 117.052 128.969 109.969H129.156L129.031 107.906C128.948 106.99 128.906 106.188 128.906 105.5L128.969 103.969L129.031 102.406L128.969 99.9062L128.906 97.375C128.906 95.6458 129.073 94.1458 129.406 92.875C130.406 93.8333 132.823 100.26 136.656 112.156C137.656 115.177 138.229 116.771 138.375 116.938ZM167.062 131.031C167.604 130.823 168.146 130.51 168.688 130.094C169.229 129.698 169.5 129.344 169.5 129.031C169.5 128.573 169.177 128.344 168.531 128.344C168.094 128.719 167.562 128.906 166.938 128.906C165.917 128.906 165.021 128.74 164.25 128.406C163.479 128.052 162.854 127.542 162.375 126.875C161.875 126.167 161.469 125.458 161.156 124.75C160.844 124.021 160.625 123.188 160.5 122.25C160.375 121.292 160.281 120.438 160.219 119.688C160.177 118.938 160.156 118.062 160.156 117.062C160.156 115.333 160.198 113.188 160.281 110.625C160.365 108.062 160.406 105.906 160.406 104.156L160.531 103.812C160.531 102.958 160.562 102.031 160.625 101.031C160.688 99.9271 160.823 98.6458 161.031 97.1875C161.26 95.7292 161.531 94.4792 161.844 93.4375C162.219 92.2292 162.729 91.2396 163.375 90.4688C164.021 89.6771 164.76 89.2812 165.594 89.2812H168.281L169.125 88.3438C169.125 88.2396 169.104 88.1042 169.062 87.9375C169.042 87.875 168.979 87.7917 168.875 87.6875C168.854 87.6667 168.76 87.6146 168.594 87.5312C168.552 87.5312 168.438 87.5 168.25 87.4375C168.188 87.4375 168.135 87.4271 168.094 87.4062L167.906 87.375H165.344C164.948 87.5833 164.417 87.8125 163.75 88.0625C162.979 88.375 162.396 88.6771 162 88.9688C161.229 89.5521 160.573 90.5208 160.031 91.875C159.49 93.1875 159.083 94.5 158.812 95.8125C158.562 97.125 158.375 98.7604 158.25 100.719C158.125 102.51 158.042 103.885 158 104.844C157.979 105.781 157.969 107.083 157.969 108.75V116.062C157.969 117.646 158.01 118.927 158.094 119.906C158.281 123.115 158.812 125.552 159.688 127.219C160.208 128.177 160.76 128.896 161.344 129.375C161.927 129.854 162.625 130.219 163.438 130.469C164.146 130.677 164.646 130.865 164.938 131.031H167.062ZM183.312 120.156C183.708 120.156 184.448 120.208 185.531 120.312C186.615 120.417 187.396 120.469 187.875 120.469C189.208 120.469 190.26 120.573 191.031 120.781L192.094 129.156C192.156 129.615 192.229 129.938 192.312 130.125C192.396 130.312 192.531 130.427 192.719 130.469C192.906 130.531 193.229 130.562 193.688 130.562C194.021 130.375 194.188 130.062 194.188 129.625V129.438C192.333 114.792 191.146 104.458 190.625 98.4375L190.25 95.0625C190.083 93.6042 189.958 92.375 189.875 91.375C189.812 90.3542 189.781 89.2396 189.781 88.0312C189.781 87.7604 189.656 87.5312 189.406 87.3438C189.177 87.1562 188.917 87.0625 188.625 87.0625C188.375 87.3125 187.99 87.4375 187.469 87.4375C187.302 87.4375 187.156 87.4271 187.031 87.4062L186.594 87.375C186.49 87.5625 186.354 88.1979 186.188 89.2812C186.083 89.8646 185.979 90.7292 185.875 91.875L185.75 92.9062L185.5 95.25C185.292 96.6042 184.917 98.5833 184.375 101.188C183.812 103.729 183.438 105.594 183.25 106.781L182.562 111L182.188 113.25C182.042 114.208 181.896 115.073 181.75 115.844L181.031 119.812C180.448 123.104 179.802 126.115 179.094 128.844L179.031 129.031L178.969 129.219C178.969 129.469 179.115 129.719 179.406 129.969C179.698 130.198 179.979 130.312 180.25 130.312C180.583 130.312 180.906 129.948 181.219 129.219C181.49 128.51 181.74 127.615 181.969 126.531C182.344 124.552 182.583 123.021 182.688 121.938L182.812 120.656C182.833 120.635 182.844 120.604 182.844 120.562C182.844 120.521 182.854 120.479 182.875 120.438C182.896 120.333 182.938 120.26 183 120.219C183.062 120.177 183.167 120.156 183.312 120.156ZM183.375 118.25C183.375 116.896 183.865 113.792 184.844 108.938C184.948 108.521 186.104 102.823 188.312 91.8438C189.625 105.51 190.438 114.583 190.75 119.062H190.094C188.906 119.062 187.49 118.979 185.844 118.812C184.198 118.646 183.375 118.458 183.375 118.25ZM214.469 131.094C214.948 131.094 215.188 130.792 215.188 130.188C215.188 129.812 215.021 129.302 214.688 128.656C214.458 128.219 214.312 127.938 214.25 127.812C214.188 127.667 214.156 127.583 214.156 127.562C214.031 127.229 213.156 123.729 211.531 117.062C209.906 110.396 209.094 106.99 209.094 106.844C209.094 106.781 209.375 106.24 209.938 105.219C210.583 103.99 211.156 102.708 211.656 101.375C212.177 100.042 212.438 98.9792 212.438 98.1875V93.5312C212.438 91.5521 211.771 90.0208 210.438 88.9375C209.125 87.8542 207.396 87.3125 205.25 87.3125C204.854 87.3125 204.542 87.4583 204.312 87.75C204.104 88.0208 203.969 88.2917 203.906 88.5625C203.865 88.8333 203.844 89.2292 203.844 89.75C203.844 98.1458 204.188 111.583 204.875 130.062L205.344 130.562H206.281L206.75 129.5C206.542 128.792 206.365 126.552 206.219 122.781C205.844 115.74 205.656 111.062 205.656 108.75C205.656 108.146 206.125 107.844 207.062 107.844H207.312C207.771 107.844 208.26 108.917 208.781 111.062C209.344 113.354 209.833 115.76 210.25 118.281C210.75 121.281 211.292 123.979 211.875 126.375C212.479 128.75 213.031 130.219 213.531 130.781L214.469 131.094ZM205.906 106.125C205.906 104.021 205.865 101.438 205.781 98.375C205.698 95.3125 205.656 92.7292 205.656 90.625C205.656 90.25 205.719 89.8854 205.844 89.5312C205.99 89.1562 206.177 88.9688 206.406 88.9688C207.344 88.9688 208.115 89.1667 208.719 89.5625C209.344 89.9375 209.792 90.4896 210.062 91.2188C210.312 91.9271 210.479 92.6042 210.562 93.25C210.667 93.8958 210.719 94.7083 210.719 95.6875C210.719 96.4375 210.625 97.3646 210.438 98.4688C210.271 99.5729 210.021 100.719 209.688 101.906C209.354 103.156 208.854 104.198 208.188 105.031C207.542 105.844 206.823 106.25 206.031 106.25L205.906 106.125ZM224.688 127.875C224.688 128.167 224.677 128.438 224.656 128.688C224.635 128.938 224.625 129.208 224.625 129.5C224.688 130.396 225.115 130.844 225.906 130.844H231.188C233.042 130.844 233.969 130.458 233.969 129.688C233.969 129.125 233.344 128.844 232.094 128.844L230.875 128.906L229.719 128.969C228.698 128.969 228 128.812 227.625 128.5C227.25 128.167 227.031 127.51 226.969 126.531C226.844 124.802 226.781 123.104 226.781 121.438L226.844 116.875L226.906 112.344C226.906 109.948 226.865 108.26 226.781 107.281V107.094L227.094 106.781H227.375L229.469 107.094C229.74 107.427 230.229 107.594 230.938 107.594C231.333 107.594 231.646 107.438 231.875 107.125C232.104 106.792 232.219 106.396 232.219 105.938C232.198 105.167 231.365 104.781 229.719 104.781C229.615 104.781 229.25 104.802 228.625 104.844L227.562 104.906C226.958 104.906 226.656 104.312 226.656 103.125C226.656 101.792 226.698 100.135 226.781 98.1562C226.865 96.1771 226.906 94.5208 226.906 93.1875C226.906 92.1458 226.885 91.2292 226.844 90.4375L227.156 90.0625C228.281 90.1042 230.01 90.5104 232.344 91.2812C233.135 90.8229 233.531 90.3958 233.531 90C233.531 89.6042 233.135 89.2812 232.344 89.0312C231.552 88.7812 230.625 88.5938 229.562 88.4688C228.583 88.3646 227.958 88.2812 227.688 88.2188C227.479 87.9479 227.135 87.8125 226.656 87.8125C225.99 87.8125 225.51 87.9583 225.219 88.25C224.948 88.5417 224.812 89 224.812 89.625C224.812 90.6667 224.854 91.9375 224.938 93.4375C225.021 94.9583 225.062 96.2396 225.062 97.2812C225.062 99.7188 224.99 102.938 224.844 106.938C224.698 110.938 224.625 114.146 224.625 116.562C224.625 117.292 224.677 118.698 224.781 120.781C224.885 122.865 224.938 124.271 224.938 125C224.938 125.896 224.781 126.771 224.469 127.625L224.688 127.875ZM97.6875 224.031C98.2292 223.823 98.7708 223.51 99.3125 223.094C99.8542 222.698 100.125 222.344 100.125 222.031C100.125 221.573 99.8021 221.344 99.1562 221.344C98.7188 221.719 98.1875 221.906 97.5625 221.906C96.5417 221.906 95.6458 221.74 94.875 221.406C94.1042 221.052 93.4792 220.542 93 219.875C92.5 219.167 92.0938 218.458 91.7812 217.75C91.4688 217.021 91.25 216.188 91.125 215.25C91 214.292 90.9062 213.438 90.8438 212.688C90.8021 211.938 90.7812 211.062 90.7812 210.062C90.7812 208.333 90.8229 206.188 90.9062 203.625C90.9896 201.062 91.0312 198.906 91.0312 197.156L91.1562 196.812C91.1562 195.958 91.1875 195.031 91.25 194.031C91.3125 192.927 91.4479 191.646 91.6562 190.188C91.8854 188.729 92.1562 187.479 92.4688 186.438C92.8438 185.229 93.3542 184.24 94 183.469C94.6458 182.677 95.3854 182.281 96.2188 182.281H98.9062L99.75 181.344C99.75 181.24 99.7292 181.104 99.6875 180.938C99.6667 180.875 99.6042 180.792 99.5 180.688C99.4792 180.667 99.3854 180.615 99.2188 180.531C99.1771 180.531 99.0625 180.5 98.875 180.438C98.8125 180.438 98.7604 180.427 98.7188 180.406L98.5312 180.375H95.9688C95.5729 180.583 95.0417 180.812 94.375 181.062C93.6042 181.375 93.0208 181.677 92.625 181.969C91.8542 182.552 91.1979 183.521 90.6562 184.875C90.1146 186.188 89.7083 187.5 89.4375 188.812C89.1875 190.125 89 191.76 88.875 193.719C88.75 195.51 88.6667 196.885 88.625 197.844C88.6042 198.781 88.5938 200.083 88.5938 201.75V209.062C88.5938 210.646 88.6354 211.927 88.7188 212.906C88.9062 216.115 89.4375 218.552 90.3125 220.219C90.8333 221.177 91.3854 221.896 91.9688 222.375C92.5521 222.854 93.25 223.219 94.0625 223.469C94.7708 223.677 95.2708 223.865 95.5625 224.031H97.6875ZM115.125 222.375C115.292 222.792 115.875 223 116.875 223C117.146 223 117.51 222.875 117.969 222.625C118.469 222.396 118.865 222.281 119.156 222.281C119.406 222.281 119.76 222.312 120.219 222.375C120.635 222.458 120.99 222.5 121.281 222.5C121.677 222.5 122.01 222.385 122.281 222.156C122.552 221.906 122.688 221.594 122.688 221.219C122.688 220.615 122.052 220.312 120.781 220.312C120.427 220.312 120.115 220.323 119.844 220.344C119.573 220.365 119.26 220.375 118.906 220.375C117.969 220.375 117.5 220.167 117.5 219.75L117.562 219.594C117.438 219.406 117.375 218.812 117.375 217.812C117.375 217.354 117.385 216.969 117.406 216.656L117.438 215.844C117.438 214.073 117.365 211.729 117.219 208.812C117.073 205.917 117 203.583 117 201.812C117 200.125 117.031 197.583 117.094 194.188C117.156 190.812 117.188 188.281 117.188 186.594C117.188 184.698 117.125 183.562 117 183.188L117.312 183C118.208 183 118.823 183.125 119.156 183.375L120.625 183.25C120.729 183 120.781 182.833 120.781 182.75C120.781 182.292 120.406 181.927 119.656 181.656C118.802 181.344 117.823 181.146 116.719 181.062C114.885 180.896 113.271 180.812 111.875 180.812C111.604 180.812 111.281 180.906 110.906 181.094C110.531 181.26 110.344 181.427 110.344 181.594C110.344 182.323 110.75 182.688 111.562 182.688L112.344 182.625L113.094 182.562C113.969 182.562 114.604 182.625 115 182.75C115.208 184.688 115.312 187.156 115.312 190.156C115.312 191.427 115.26 193.906 115.156 197.594C115.052 201.302 115 203.802 115 205.094C115 206.469 115.083 208.802 115.25 212.094C115.396 214.99 115.469 217.323 115.469 219.094C115.469 219.24 115.438 219.49 115.375 219.844C115.292 220.156 115.25 220.354 115.25 220.438L115 220.688H113.156L112.781 221.031C112.594 221.156 112.469 221.271 112.406 221.375C112.344 221.479 112.312 221.615 112.312 221.781C112.562 222.219 113.146 222.438 114.062 222.438C114.25 222.438 114.427 222.427 114.594 222.406C114.74 222.385 114.917 222.375 115.125 222.375ZM143.844 224.094C144.323 224.094 144.562 223.792 144.562 223.188C144.562 222.812 144.396 222.302 144.062 221.656C143.833 221.219 143.688 220.938 143.625 220.812C143.562 220.667 143.531 220.583 143.531 220.562C143.406 220.229 142.531 216.729 140.906 210.062C139.281 203.396 138.469 199.99 138.469 199.844C138.469 199.781 138.75 199.24 139.312 198.219C139.958 196.99 140.531 195.708 141.031 194.375C141.552 193.042 141.812 191.979 141.812 191.188V186.531C141.812 184.552 141.146 183.021 139.812 181.938C138.5 180.854 136.771 180.312 134.625 180.312C134.229 180.312 133.917 180.458 133.688 180.75C133.479 181.021 133.344 181.292 133.281 181.562C133.24 181.833 133.219 182.229 133.219 182.75C133.219 191.146 133.562 204.583 134.25 223.062L134.719 223.562H135.656L136.125 222.5C135.917 221.792 135.74 219.552 135.594 215.781C135.219 208.74 135.031 204.062 135.031 201.75C135.031 201.146 135.5 200.844 136.438 200.844H136.688C137.146 200.844 137.635 201.917 138.156 204.062C138.719 206.354 139.208 208.76 139.625 211.281C140.125 214.281 140.667 216.979 141.25 219.375C141.854 221.75 142.406 223.219 142.906 223.781L143.844 224.094ZM135.281 199.125C135.281 197.021 135.24 194.438 135.156 191.375C135.073 188.312 135.031 185.729 135.031 183.625C135.031 183.25 135.094 182.885 135.219 182.531C135.365 182.156 135.552 181.969 135.781 181.969C136.719 181.969 137.49 182.167 138.094 182.562C138.719 182.938 139.167 183.49 139.438 184.219C139.688 184.927 139.854 185.604 139.938 186.25C140.042 186.896 140.094 187.708 140.094 188.688C140.094 189.438 140 190.365 139.812 191.469C139.646 192.573 139.396 193.719 139.062 194.906C138.729 196.156 138.229 197.198 137.562 198.031C136.917 198.844 136.198 199.25 135.406 199.25L135.281 199.125ZM162.688 224.031C163.229 223.823 163.771 223.51 164.312 223.094C164.854 222.698 165.125 222.344 165.125 222.031C165.125 221.573 164.802 221.344 164.156 221.344C163.719 221.719 163.188 221.906 162.562 221.906C161.542 221.906 160.646 221.74 159.875 221.406C159.104 221.052 158.479 220.542 158 219.875C157.5 219.167 157.094 218.458 156.781 217.75C156.469 217.021 156.25 216.188 156.125 215.25C156 214.292 155.906 213.438 155.844 212.688C155.802 211.938 155.781 211.062 155.781 210.062C155.781 208.333 155.823 206.188 155.906 203.625C155.99 201.062 156.031 198.906 156.031 197.156L156.156 196.812C156.156 195.958 156.188 195.031 156.25 194.031C156.312 192.927 156.448 191.646 156.656 190.188C156.885 188.729 157.156 187.479 157.469 186.438C157.844 185.229 158.354 184.24 159 183.469C159.646 182.677 160.385 182.281 161.219 182.281H163.906L164.75 181.344C164.75 181.24 164.729 181.104 164.688 180.938C164.667 180.875 164.604 180.792 164.5 180.688C164.479 180.667 164.385 180.615 164.219 180.531C164.177 180.531 164.062 180.5 163.875 180.438C163.812 180.438 163.76 180.427 163.719 180.406L163.531 180.375H160.969C160.573 180.583 160.042 180.812 159.375 181.062C158.604 181.375 158.021 181.677 157.625 181.969C156.854 182.552 156.198 183.521 155.656 184.875C155.115 186.188 154.708 187.5 154.438 188.812C154.188 190.125 154 191.76 153.875 193.719C153.75 195.51 153.667 196.885 153.625 197.844C153.604 198.781 153.594 200.083 153.594 201.75V209.062C153.594 210.646 153.635 211.927 153.719 212.906C153.906 216.115 154.438 218.552 155.312 220.219C155.833 221.177 156.385 221.896 156.969 222.375C157.552 222.854 158.25 223.219 159.062 223.469C159.771 223.677 160.271 223.865 160.562 224.031H162.688ZM179.656 223.562C181.74 223.562 183.51 223.583 184.969 223.625C185.656 223.562 186 223.292 186 222.812C186 222.562 185.896 222.323 185.688 222.094C185.479 221.844 185.26 221.719 185.031 221.719H184.844L182.125 221.625C180.542 221.562 179.438 221.531 178.812 221.531C178.625 221.531 178.521 221.427 178.5 221.219C178.458 220.969 178.438 220.542 178.438 219.938V219.531L178.625 213.406C178.5 213.156 178.438 212.854 178.438 212.5C178.438 212.396 178.448 212.312 178.469 212.25C178.49 212.188 178.5 212.104 178.5 212L178.438 212.062L178.625 211.531L178.562 208.812L178.5 206.094C178.5 205.615 178.531 204.74 178.594 203.469L178.688 200.719C178.688 198.135 178.677 195.812 178.656 193.75C178.635 191.688 178.625 189.365 178.625 186.781C178.625 185.844 178.635 185 178.656 184.25C178.677 183.5 178.688 182.656 178.688 181.719C178.688 181.74 178.635 181.729 178.531 181.688C178.135 181.542 177.833 181.469 177.625 181.469C177.312 181.469 177.156 181.615 177.156 181.906L177 183.844C176.896 185.198 176.844 185.958 176.844 186.125C176.844 189.542 176.781 195.094 176.656 202.781C176.531 210.49 176.469 216.312 176.469 220.25C176.469 221.312 176.427 222.021 176.344 222.375C176.448 223.354 176.802 223.844 177.406 223.844C177.719 223.844 178.115 223.802 178.594 223.719C179.135 223.656 179.531 223.625 179.781 223.625L179.656 223.562ZM196.562 220.875C196.562 221.167 196.552 221.438 196.531 221.688C196.51 221.938 196.5 222.208 196.5 222.5C196.562 223.396 196.99 223.844 197.781 223.844H203.062C204.917 223.844 205.844 223.458 205.844 222.688C205.844 222.125 205.219 221.844 203.969 221.844L202.75 221.906L201.594 221.969C200.573 221.969 199.875 221.812 199.5 221.5C199.125 221.167 198.906 220.51 198.844 219.531C198.719 217.802 198.656 216.104 198.656 214.438L198.719 209.875L198.781 205.344C198.781 202.948 198.74 201.26 198.656 200.281V200.094L198.969 199.781H199.25L201.344 200.094C201.615 200.427 202.104 200.594 202.812 200.594C203.208 200.594 203.521 200.438 203.75 200.125C203.979 199.792 204.094 199.396 204.094 198.938C204.073 198.167 203.24 197.781 201.594 197.781C201.49 197.781 201.125 197.802 200.5 197.844L199.438 197.906C198.833 197.906 198.531 197.312 198.531 196.125C198.531 194.792 198.573 193.135 198.656 191.156C198.74 189.177 198.781 187.521 198.781 186.188C198.781 185.146 198.76 184.229 198.719 183.438L199.031 183.062C200.156 183.104 201.885 183.51 204.219 184.281C205.01 183.823 205.406 183.396 205.406 183C205.406 182.604 205.01 182.281 204.219 182.031C203.427 181.781 202.5 181.594 201.438 181.469C200.458 181.365 199.833 181.281 199.562 181.219C199.354 180.948 199.01 180.812 198.531 180.812C197.865 180.812 197.385 180.958 197.094 181.25C196.823 181.542 196.688 182 196.688 182.625C196.688 183.667 196.729 184.938 196.812 186.438C196.896 187.958 196.938 189.24 196.938 190.281C196.938 192.719 196.865 195.938 196.719 199.938C196.573 203.938 196.5 207.146 196.5 209.562C196.5 210.292 196.552 211.698 196.656 213.781C196.76 215.865 196.812 217.271 196.812 218C196.812 218.896 196.656 219.771 196.344 220.625L196.562 220.875Z" fill="#ECCD5E" fill-opacity="0.7" shape-rendering="crispEdges"/>
</g>
<g filter="url(#filter2_f_8_8184)">
<circle cx="147" cy="147" r="142" stroke="#ECCD5E" stroke-opacity="0.8" stroke-width="2"/>
</g>
<g filter="url(#filter3_i_8_8184)">
<circle cx="147" cy="147" r="142" stroke="#FCDB66" stroke-opacity="0.5" stroke-width="2"/>
</g>
<defs>
<filter id="filter0_f_8_8184" x="56.7188" y="82.9375" width="181.25" height="145.156" filterUnits="userSpaceOnUse" color-interpolation-filters="sRGB">
<feFlood flood-opacity="0" result="BackgroundImageFix"/>
<feBlend mode="normal" in="SourceGraphic" in2="BackgroundImageFix" result="shape"/>
<feGaussianBlur stdDeviation="2" result="effect1_foregroundBlur_8_8184"/>
</filter>
<filter id="filter1_d_8_8184" x="56.7188" y="86.9375" width="181.25" height="145.156" filterUnits="userSpaceOnUse" color-interpolation-filters="sRGB">
<feFlood flood-opacity="0" result="BackgroundImageFix"/>
<feColorMatrix in="SourceAlpha" type="matrix" values="0 0 0 0 0 0 0 0 0 0 0 0 0 0 0 0 0 0 127 0" result="hardAlpha"/>
<feOffset dy="4"/>
<feGaussianBlur stdDeviation="2"/>
<feComposite in2="hardAlpha" operator="out"/>
<feColorMatrix type="matrix" values="0 0 0 0 0 0 0 0 0 0 0 0 0 0 0 0 0 0 0.25 0"/>
<feBlend mode="normal" in2="BackgroundImageFix" result="effect1_dropShadow_8_8184"/>
<feBlend mode="normal" in="SourceGraphic" in2="effect1_dropShadow_8_8184" result="shape"/>
</filter>
<filter id="filter2_f_8_8184" x="0" y="0" width="294" height="294" filterUnits="userSpaceOnUse" color-interpolation-filters="sRGB">
<feFlood flood-opacity="0" result="BackgroundImageFix"/>
<feBlend mode="normal" in="SourceGraphic" in2="BackgroundImageFix" result="shape"/>
<feGaussianBlur stdDeviation="2" result="effect1_foregroundBlur_8_8184"/>
</filter>
<filter id="filter3_i_8_8184" x="4" y="4" width="286" height="290" filterUnits="userSpaceOnUse" color-interpolation-filters="sRGB">
<feFlood flood-opacity="0" result="BackgroundImageFix"/>
<feBlend mode="normal" in="SourceGraphic" in2="BackgroundImageFix" result="shape"/>
<feColorMatrix in="SourceAlpha" type="matrix" values="0 0 0 0 0 0 0 0 0 0 0 0 0 0 0 0 0 0 127 0" result="hardAlpha"/>
<feOffset dy="4"/>
<feGaussianBlur stdDeviation="2"/>
<feComposite in2="hardAlpha" operator="arithmetic" k2="-1" k3="1"/>
<feColorMatrix type="matrix" values="0 0 0 0 0 0 0 0 0 0 0 0 0 0 0 0 0 0 0.25 0"/>
<feBlend mode="normal" in2="shape" result="effect1_innerShadow_8_8184"/>
</filter>
</defs>
</svg>
