<svg width="51" height="52" viewBox="0 0 51 52" fill="none" xmlns="http://www.w3.org/2000/svg">
<path d="M19.8125 13.4219C19.1354 13.4219 18.5417 13.6667 18.0312 14.1562C17.5521 14.6354 17.1927 15.1979 16.9531 15.8438C16.724 16.4896 16.6094 17.1667 16.6094 17.875C16.6094 18.9062 16.7656 19.9375 17.0781 20.9688C17.3177 21.75 17.5938 22.4844 17.9062 23.1719C18.2188 23.849 18.6302 24.6771 19.1406 25.6562L19.5781 26.5C20.0677 27.4479 20.4583 28.4583 20.75 29.5312C21.0417 30.5938 21.1875 31.6458 21.1875 32.6875C21.1875 33.1458 21.1354 33.6562 21.0312 34.2188C20.9271 34.7812 20.7708 35.349 20.5625 35.9219C20.3438 36.5365 20.0365 37.0365 19.6406 37.4219C19.2552 37.8073 18.8229 38 18.3438 38C18.1354 38 17.849 37.9167 17.4844 37.75C17.099 37.5938 16.7969 37.5156 16.5781 37.5156C16.349 37.5156 16.2344 37.6458 16.2344 37.9062C16.3802 38.1562 16.5781 38.3385 16.8281 38.4531C17.0677 38.5677 17.2812 38.6354 17.4688 38.6562C17.6667 38.6875 17.9583 38.7031 18.3438 38.7031C18.9792 38.7031 19.5677 38.5104 20.1094 38.125C20.651 37.75 21.0833 37.25 21.4062 36.625C21.7083 36.0312 21.9375 35.4062 22.0938 34.75C22.2604 34.0833 22.3438 33.4479 22.3438 32.8438C22.3438 31.8646 22.2292 30.901 22 29.9531C21.8229 29.2031 21.6094 28.5208 21.3594 27.9062C21.1094 27.2812 20.7656 26.526 20.3281 25.6406L20.0312 25.0156C19.625 24.1927 19.25 23.4115 18.9062 22.6719C18.5417 21.9115 18.25 21.0885 18.0312 20.2031C17.8125 19.3177 17.7031 18.4531 17.7031 17.6094C17.7031 17.1094 17.7812 16.6198 17.9375 16.1406C18.1042 15.6094 18.375 15.1615 18.75 14.7969C19.1354 14.4323 19.5677 14.25 20.0469 14.25C20.2031 14.25 20.3802 14.3021 20.5781 14.4062C20.7865 14.5208 20.9583 14.5781 21.0938 14.5781C21.2292 14.5781 21.2969 14.4948 21.2969 14.3281C21.2969 14.1927 21.2083 14.0573 21.0312 13.9219C20.8542 13.776 20.6458 13.6562 20.4062 13.5625C20.1667 13.4688 19.9688 13.4219 19.8125 13.4219ZM27.5781 24.2969C27.5781 25.1719 27.6406 26.5104 27.7656 28.3125C27.8906 30.1042 28.0469 31.776 28.2344 33.3281C28.4219 34.8802 28.599 35.8385 28.7656 36.2031C28.9427 36.5885 29.2135 36.9635 29.5781 37.3281C29.9531 37.6823 30.3594 37.9688 30.7969 38.1875C31.2448 38.4062 31.6667 38.5156 32.0625 38.5156C32.8229 38.5156 33.5729 38.3646 34.3125 38.0625C34.6979 37.9062 35.0104 37.6875 35.25 37.4062C35.4896 37.1146 35.6094 36.7812 35.6094 36.4062C35.6094 36.0938 35.5104 35.9375 35.3125 35.9375C35.0938 35.9375 34.8958 36.0729 34.7188 36.3438C34.1979 36.9583 33.4531 37.2656 32.4844 37.2656C31.9219 37.2656 31.3906 37.1562 30.8906 36.9375C30.401 36.7188 30.026 36.4115 29.7656 36.0156C29.5677 35.724 29.3646 34.8385 29.1562 33.3594C28.9583 31.8698 28.7917 30.25 28.6562 28.5C28.5208 26.75 28.4531 25.4375 28.4531 24.5625L28.4219 22.8906L28.3906 21.1094C28.3906 20.4427 28.4167 19.7969 28.4688 19.1719C28.5208 18.5677 28.625 17.974 28.7812 17.3906C28.9479 16.8073 29.1562 16.3333 29.4062 15.9688C29.6875 15.5625 30.0625 15.2396 30.5312 15C31.0104 14.7604 31.5521 14.6406 32.1562 14.6406C32.3542 14.6406 32.6458 14.7135 33.0312 14.8594C33.3958 15.0156 33.6406 15.0938 33.7656 15.0938C34.099 15.0938 34.2656 14.974 34.2656 14.7344C34.2656 14.526 34.1667 14.3333 33.9688 14.1562C33.7708 13.9688 33.526 13.8229 33.2344 13.7188C32.9427 13.6042 32.6719 13.5469 32.4219 13.5469C31.7865 13.5469 31.2344 13.6146 30.7656 13.75C30.2656 13.8854 29.849 14.0677 29.5156 14.2969C29.1823 14.5156 28.8958 14.8073 28.6562 15.1719C28.4062 15.5365 28.2083 15.9115 28.0625 16.2969C27.9271 16.6823 27.8229 17.1458 27.75 17.6875C27.6771 18.2188 27.625 18.7292 27.5938 19.2188C27.5625 19.7083 27.5469 20.2917 27.5469 20.9688C27.5469 21.5625 27.5521 22.1042 27.5625 22.5938C27.5729 23.0938 27.5781 23.6615 27.5781 24.2969Z" fill="#ECCD5E"/>
<circle cx="25" cy="26" r="24" stroke="#FCDB66" stroke-width="2"/>
</svg>
