<svg width="42" height="38" viewBox="0 0 42 38" fill="none" xmlns="http://www.w3.org/2000/svg">
<path fill-rule="evenodd" clip-rule="evenodd" d="M5.80357 19.6398C5.99107 18.3599 6.4717 17.1421 7.20711 16.0834C8.53185 14.2035 9.98524 12.4197 11.5566 10.7453C12.5288 9.59186 13.5669 8.38671 14.6707 7.27027C15.3816 6.5389 16.1386 5.85479 16.9368 5.22224C17.0069 5.16739 17.0656 5.0991 17.1096 5.02129C17.1536 4.94349 17.182 4.85768 17.1932 4.76877C17.2044 4.67986 17.1981 4.5896 17.1749 4.50312C17.1516 4.41665 17.1117 4.33565 17.0574 4.26477C17.0032 4.19389 16.9357 4.13451 16.8587 4.09002C16.7818 4.04553 16.697 4.0168 16.6091 4.00547C16.5212 3.99415 16.4319 4.00044 16.3464 4.024C16.2609 4.04756 16.1808 4.08791 16.1108 4.14277C15.2639 4.80668 14.4582 5.52276 13.6984 6.28692C12.5654 7.41815 11.5054 8.64549 10.4893 9.81368C8.86695 11.529 7.36243 13.3546 5.98632 15.2775C5.00538 16.6664 4.41891 18.3002 4.29041 20.0021C4.29198 20.2206 4.37258 20.431 4.51702 20.5935C4.68515 20.8006 5.18223 21.2664 5.19685 21.2812L7.38986 23.8467C9.44399 26.3162 11.4177 28.7709 13.5742 31.0925C14.4075 31.9846 15.2726 32.8595 16.1693 33.7172C16.2204 33.7616 16.257 33.8355 16.3228 33.8577C16.3885 33.8799 16.469 33.8577 16.5932 33.8577C16.6848 33.9489 16.8082 34 16.9368 34C17.0654 34 17.1888 33.9489 17.2804 33.8577C17.3259 33.8123 17.3621 33.7582 17.3867 33.6985C17.4114 33.6389 17.4241 33.5748 17.4241 33.5102C17.4241 33.4455 17.4114 33.3815 17.3867 33.3218C17.3621 33.2622 17.3259 33.2081 17.2804 33.1627C17.2794 33.0541 17.2596 32.9465 17.2219 32.8447C17.0136 32.565 16.7675 32.3161 16.4909 32.1054C13.6692 29.1479 11.1692 26.0796 8.57409 22.9151L6.33721 20.2756C6.20672 20.0357 6.03606 19.8206 5.83282 19.6398H5.80357Z" fill="#ECCD5E" fill-opacity="0.7"/>
<path fill-rule="evenodd" clip-rule="evenodd" d="M4.54615 20.0021C5.91313 19.9208 7.28013 19.9429 8.65442 20.0021C11.8928 20.1204 15.153 20.4383 18.3914 20.3939C21.6298 20.3496 24.7731 20.1647 27.9457 19.906C30.7966 19.6694 33.6621 19.4624 36.4911 19.0409C36.8128 18.9966 37.1198 18.9226 37.4341 18.8635C37.5202 18.8556 37.6037 18.8298 37.6793 18.7875C37.7549 18.7452 37.8209 18.6874 37.8732 18.6178C37.9255 18.5482 37.9629 18.4684 37.9829 18.3834C38.003 18.2984 38.0053 18.2101 37.9897 18.1241C37.9799 18.0379 37.9529 17.9546 37.9105 17.8792C37.8681 17.8039 37.811 17.7379 37.7427 17.6854C37.6744 17.6329 37.5963 17.595 37.5131 17.5738C37.43 17.5526 37.3434 17.5487 37.2587 17.5622C36.8785 17.5622 36.5277 17.6066 36.1183 17.6435C32.7118 17.9688 29.3273 18.4494 25.9208 18.723C23.4061 18.9226 20.8768 19.0705 18.3475 19.1296C15.1238 19.1962 11.8855 18.8561 8.66171 18.8191C7.25341 18.7993 5.84515 18.861 4.44382 19.0039C4.38046 19.0093 4.31876 19.0272 4.26225 19.0567C4.20573 19.0861 4.1555 19.1265 4.11443 19.1756C4.07336 19.2247 4.04227 19.2815 4.0229 19.3427C4.00353 19.404 3.99627 19.4685 4.00155 19.5326C4.00683 19.5967 4.02454 19.6591 4.05366 19.7162C4.08279 19.7734 4.12276 19.8242 4.17129 19.8657C4.21983 19.9073 4.27598 19.9387 4.33653 19.9583C4.39709 19.9779 4.46086 19.9852 4.52422 19.9799L4.54615 20.0021Z" fill="#ECCD5E" fill-opacity="0.7"/>
<g filter="url(#filter0_f_40_12446)">
<path fill-rule="evenodd" clip-rule="evenodd" d="M5.80357 19.6398C5.99107 18.3599 6.4717 17.1421 7.20711 16.0834C8.53185 14.2035 9.98524 12.4197 11.5566 10.7453C12.5288 9.59186 13.5669 8.38671 14.6707 7.27027C15.3816 6.5389 16.1386 5.85479 16.9368 5.22224C17.0069 5.16739 17.0656 5.0991 17.1096 5.02129C17.1536 4.94349 17.182 4.85768 17.1932 4.76877C17.2044 4.67986 17.1981 4.5896 17.1749 4.50312C17.1516 4.41665 17.1117 4.33565 17.0574 4.26477C17.0032 4.19389 16.9357 4.13451 16.8587 4.09002C16.7818 4.04553 16.697 4.0168 16.6091 4.00547C16.5212 3.99415 16.4319 4.00044 16.3464 4.024C16.2609 4.04756 16.1808 4.08791 16.1108 4.14277C15.2639 4.80668 14.4582 5.52276 13.6984 6.28692C12.5654 7.41815 11.5054 8.64549 10.4893 9.81368C8.86695 11.529 7.36243 13.3546 5.98632 15.2775C5.00538 16.6664 4.41891 18.3002 4.29041 20.0021C4.29198 20.2206 4.37258 20.431 4.51702 20.5935C4.68515 20.8006 5.18223 21.2664 5.19685 21.2812L7.38986 23.8467C9.44399 26.3162 11.4177 28.7709 13.5742 31.0925C14.4075 31.9846 15.2726 32.8595 16.1693 33.7172C16.2204 33.7616 16.257 33.8355 16.3228 33.8577C16.3885 33.8799 16.469 33.8577 16.5932 33.8577C16.6848 33.9489 16.8082 34 16.9368 34C17.0654 34 17.1888 33.9489 17.2804 33.8577C17.3259 33.8123 17.3621 33.7582 17.3867 33.6985C17.4114 33.6389 17.4241 33.5748 17.4241 33.5102C17.4241 33.4455 17.4114 33.3815 17.3867 33.3218C17.3621 33.2622 17.3259 33.2081 17.2804 33.1627C17.2794 33.0541 17.2596 32.9465 17.2219 32.8447C17.0136 32.565 16.7675 32.3161 16.4909 32.1054C13.6692 29.1479 11.1692 26.0796 8.57409 22.9151L6.33721 20.2756C6.20672 20.0357 6.03606 19.8206 5.83282 19.6398H5.80357Z" fill="#ECCD5E" fill-opacity="0.7"/>
<path fill-rule="evenodd" clip-rule="evenodd" d="M4.54615 20.0021C5.91313 19.9208 7.28013 19.9429 8.65442 20.0021C11.8928 20.1204 15.153 20.4383 18.3914 20.3939C21.6298 20.3496 24.7731 20.1647 27.9457 19.906C30.7966 19.6694 33.6621 19.4624 36.4911 19.0409C36.8128 18.9966 37.1198 18.9226 37.4341 18.8635C37.5202 18.8556 37.6037 18.8298 37.6793 18.7875C37.7549 18.7452 37.8209 18.6874 37.8732 18.6178C37.9255 18.5482 37.9629 18.4684 37.9829 18.3834C38.003 18.2984 38.0053 18.2101 37.9897 18.1241C37.9799 18.0379 37.9529 17.9546 37.9105 17.8792C37.8681 17.8039 37.811 17.7379 37.7427 17.6854C37.6744 17.6329 37.5963 17.595 37.5131 17.5738C37.43 17.5526 37.3434 17.5487 37.2587 17.5622C36.8785 17.5622 36.5277 17.6066 36.1183 17.6435C32.7118 17.9688 29.3273 18.4494 25.9208 18.723C23.4061 18.9226 20.8768 19.0705 18.3475 19.1296C15.1238 19.1962 11.8855 18.8561 8.66171 18.8191C7.25341 18.7993 5.84515 18.861 4.44382 19.0039C4.38046 19.0093 4.31876 19.0272 4.26225 19.0567C4.20573 19.0861 4.1555 19.1265 4.11443 19.1756C4.07336 19.2247 4.04227 19.2815 4.0229 19.3427C4.00353 19.404 3.99627 19.4685 4.00155 19.5326C4.00683 19.5967 4.02454 19.6591 4.05366 19.7162C4.08279 19.7734 4.12276 19.8242 4.17129 19.8657C4.21983 19.9073 4.27598 19.9387 4.33653 19.9583C4.39709 19.9779 4.46086 19.9852 4.52422 19.9799L4.54615 20.0021Z" fill="#ECCD5E" fill-opacity="0.7"/>
</g>
<defs>
<filter id="filter0_f_40_12446" x="-0.00012207" y="0" width="42.0001" height="38" filterUnits="userSpaceOnUse" color-interpolation-filters="sRGB">
<feFlood flood-opacity="0" result="BackgroundImageFix"/>
<feBlend mode="normal" in="SourceGraphic" in2="BackgroundImageFix" result="shape"/>
<feGaussianBlur stdDeviation="2" result="effect1_foregroundBlur_40_12446"/>
</filter>
</defs>
</svg>
