<svg width="21" height="21" viewBox="0 0 21 21" fill="none" xmlns="http://www.w3.org/2000/svg">
<path d="M13.1248 10.8269L9.44925 15.4213L7.87402 13.5803" stroke="#ECCD5E" stroke-width="1.00189" stroke-linecap="round" stroke-linejoin="round"/>
<path fill-rule="evenodd" clip-rule="evenodd" d="M3.28088 7.21838C3.10684 7.21838 2.93992 7.28752 2.81685 7.4106C2.69377 7.53367 2.62463 7.70059 2.62463 7.87463V16.734C2.62463 17.9743 3.6812 19.0309 4.92151 19.0309H16.0778C17.3181 19.0309 18.3746 18.0256 18.3746 16.7853V7.87463C18.3746 7.70059 18.3055 7.53367 18.1824 7.4106C18.0594 7.28752 17.8924 7.21838 17.7184 7.21838H3.28088Z" stroke="#ECCD5E" stroke-width="1.00189" stroke-linecap="round" stroke-linejoin="round"/>
<path d="M6.56165 7.21962V5.90693C6.56165 4.86249 6.97655 3.86083 7.71508 3.1223C8.45361 2.38377 9.45527 1.96887 10.4997 1.96887V1.96887C11.5441 1.96887 12.5458 2.38377 13.2843 3.1223C14.0229 3.86083 14.4378 4.86249 14.4378 5.90693V7.21962" stroke="#ECCD5E" stroke-width="1.00189" stroke-linecap="round" stroke-linejoin="round"/>
</svg>
