<svg width="21" height="21" viewBox="0 0 21 21" fill="none" xmlns="http://www.w3.org/2000/svg">
<path d="M13.126 13.1243H7.87524" stroke="#ECCD5E" stroke-width="1.00189" stroke-linecap="round" stroke-linejoin="round"/>
<path fill-rule="evenodd" clip-rule="evenodd" d="M3.28198 7.21838C3.10793 7.21838 2.94101 7.28752 2.81794 7.4106C2.69487 7.53367 2.62573 7.70059 2.62573 7.87463V16.734C2.62573 17.9743 3.6823 19.0309 4.92261 19.0309H16.0789C17.3192 19.0309 18.3757 18.0256 18.3757 16.7853V7.87463C18.3757 7.70059 18.3066 7.53367 18.1835 7.4106C18.0605 7.28752 17.8935 7.21838 17.7195 7.21838H3.28198Z" stroke="#ECCD5E" stroke-width="1.00189" stroke-linecap="round" stroke-linejoin="round"/>
<path d="M6.56213 7.21925V5.90657C6.56213 4.86213 6.97704 3.86047 7.71557 3.12194C8.4541 2.38341 9.45576 1.96851 10.5002 1.96851V1.96851C11.5446 1.96851 12.5463 2.38341 13.2848 3.12194C14.0234 3.86047 14.4383 4.86213 14.4383 5.90657V7.21925" stroke="#ECCD5E" stroke-width="1.00189" stroke-linecap="round" stroke-linejoin="round"/>
</svg>
