<svg width="37" height="38" viewBox="0 0 37 38" fill="none" xmlns="http://www.w3.org/2000/svg">
<path fill-rule="evenodd" clip-rule="evenodd" d="M5.64236 7.49703C7.25158 7.3029 8.84861 7.1365 10.4517 6.96548C11.5123 6.84993 12.5791 6.72051 13.6458 6.6142C14.7125 6.50789 15.9316 6.39234 17.0836 6.30452C17.998 6.23056 18.9123 6.17972 19.851 6.1335C21.2408 6.06879 22.6427 6.02257 24.0325 5.97172C25.2914 5.8683 26.5585 5.83431 27.8239 5.87004C28.5878 5.90765 29.3283 6.08529 29.9817 6.38771C30.4741 6.61133 30.8869 6.92276 31.1843 7.29492C31.4818 7.66709 31.6549 8.08872 31.6885 8.52315C31.696 8.94374 31.536 9.35627 31.2293 9.70677C30.9226 10.0573 30.4835 10.3294 29.9695 10.4876C27.9019 11.1556 25.6927 11.5361 23.4473 11.6107C19.9363 11.8141 16.2546 11.6108 13.0423 11.694C11.4087 11.7309 10.2628 11.8049 9.34844 11.5691C8.43412 11.3334 7.84894 10.7926 7.16624 9.65095C7.03824 9.42909 6.86147 9.18874 6.75175 8.95763C6.7033 8.8911 6.6744 8.81741 6.66704 8.74162C6.65967 8.66582 6.67401 8.58972 6.70908 8.51852C6.7443 8.47209 6.76713 8.42085 6.77623 8.36773C6.78534 8.31461 6.78055 8.26065 6.76215 8.20893C6.74375 8.15721 6.71211 8.10875 6.66901 8.06631C6.62591 8.02386 6.57222 7.98826 6.51099 7.96156C6.44975 7.93485 6.38216 7.91755 6.31211 7.91065C6.24206 7.90375 6.1709 7.90736 6.10269 7.92131C6.03448 7.93526 5.97058 7.95926 5.91461 7.99194C5.85863 8.02462 5.81169 8.06535 5.77647 8.11178C5.58964 8.31758 5.49949 8.56501 5.52047 8.81434C5.61008 9.23947 5.80224 9.64842 6.08734 10.0207C6.95291 11.4906 7.82456 12.1377 8.95832 12.4381C9.97627 12.7062 11.2502 12.6646 13.0789 12.6276C16.3034 12.5629 20.0095 12.7755 23.5388 12.586C25.9415 12.5066 28.3058 12.0995 30.5181 11.3843C31.2671 11.1494 31.9049 10.7482 32.3476 10.2335C32.7904 9.71873 33.0175 9.11446 32.999 8.50004C32.9598 7.9037 32.728 7.32377 32.3242 6.81121C31.9203 6.29865 31.3567 5.86912 30.6827 5.56035C29.853 5.17397 28.9114 4.94707 27.9397 4.89938C26.613 4.86817 25.2851 4.90678 23.9655 5.01493C22.5696 5.07502 21.1676 5.13049 19.7657 5.20444C18.8269 5.25067 17.8882 5.31075 16.9556 5.38933C15.0112 5.5511 13.0911 5.736 11.1832 5.99022C9.27528 6.24443 7.38568 6.56799 5.48998 6.91465C5.38434 6.93033 5.29115 6.97699 5.23065 7.0445C5.17015 7.11202 5.14724 7.19492 5.16692 7.27517C5.17711 7.31471 5.19754 7.35233 5.227 7.38585C5.25647 7.41937 5.29439 7.44812 5.33859 7.47047C5.3828 7.49281 5.43241 7.50831 5.48455 7.51604C5.53668 7.52377 5.59032 7.52359 5.64236 7.51552V7.49703Z" fill="#ECCD5E" fill-opacity="0.7"/>
<path fill-rule="evenodd" clip-rule="evenodd" d="M6.21588 17.3828C6.19546 17.4091 6.18109 17.4376 6.17333 17.4673C6.06289 17.5938 5.96142 17.7243 5.86935 17.8585C5.53969 18.4543 5.31692 19.0789 5.20665 19.7165C5.08773 20.1609 5.1982 20.6217 5.51672 21.0101C6.15444 21.5816 7.0156 21.9972 7.98507 22.2013C9.27724 22.4635 10.5971 22.6463 11.9308 22.7481C13.7552 22.9394 15.5959 23.0359 17.439 23.037C20.1627 23.037 22.9107 22.9126 25.6101 22.7792C26.5464 22.7347 27.738 22.7392 28.8445 22.6103C29.6419 22.5355 30.4108 22.3451 31.1062 22.0502C31.3371 21.9364 31.5422 21.7969 31.7142 21.6368C31.9426 21.4277 32.146 21.2046 32.3221 20.97C33.6293 19.2676 32.8936 18.2807 31.4102 17.6807C29.793 17.0228 26.9659 16.9205 25.0387 16.8405L18.1564 16.6183C16.2535 16.5472 14.3566 16.5383 12.4597 16.5827C10.5629 16.6272 8.67208 16.7205 6.78737 16.8539C6.70021 16.8578 6.61502 16.8744 6.53686 16.9029C6.4587 16.9314 6.38919 16.9711 6.33245 17.0196C6.27572 17.0681 6.23293 17.1245 6.20664 17.1854C6.18034 17.2463 6.17108 17.3104 6.1794 17.3739L6.21588 17.3828ZM6.97584 17.8051C6.98416 17.8984 6.98416 17.9919 6.97584 18.0852C6.87249 18.5875 6.53203 19.2453 6.47123 19.8099C6.40595 20.0183 6.4425 20.2369 6.57458 20.4277C7.07309 20.826 7.72309 21.1062 8.44105 21.2323C9.66378 21.4649 10.9101 21.6255 12.1679 21.7124C13.924 21.8961 15.6955 21.9897 17.4694 21.9924C20.1627 21.9924 22.85 21.8724 25.5494 21.7479C26.4431 21.7035 27.586 21.7124 28.65 21.5924C29.2604 21.5434 29.8503 21.4027 30.3827 21.179C30.5357 21.1049 30.6695 21.0116 30.7779 20.9034C30.9137 20.7599 31.0396 20.6116 31.1548 20.4588C31.9087 19.4809 31.6351 18.8942 30.784 18.5475C29.3188 17.9518 26.747 17.8985 25.0022 17.8229L18.126 17.5829C16.2656 17.5117 14.3992 17.4984 12.5388 17.5384C10.6784 17.5784 8.84232 17.6629 7.00017 17.7918L6.97584 17.8051Z" fill="#ECCD5E" fill-opacity="0.7"/>
<path fill-rule="evenodd" clip-rule="evenodd" d="M5.84821 28.3421C5.72068 28.5783 5.60529 28.8053 5.5142 29.0229C5.21887 29.6403 5.12914 30.304 5.25308 30.9543C5.4717 31.7834 6.35831 32.3994 8.78738 32.8486L10.676 33.0941L13.9977 33.3072C17.449 33.4548 20.909 33.4393 24.3577 33.2608C27.1572 33.0802 29.7503 32.6912 31.2806 32.0057C31.8031 31.79 32.239 31.4701 32.5417 31.0802C32.8444 30.6903 33.0025 30.2449 32.9992 29.7918C33.0134 29.3248 32.8486 28.8648 32.525 28.4683C32.2013 28.0717 31.733 27.7558 31.1773 27.5594C30.2125 27.2449 29.187 27.0525 28.141 26.9897C26.6712 26.9197 25.1977 26.9073 23.7262 26.9526L16.4511 27.1703C13.7063 27.2212 10.9857 27.2212 8.22263 27.2722C7.04453 27.2954 5.86035 27.3278 4.68225 27.3787C4.59083 27.3766 4.49983 27.3889 4.41497 27.4149C4.33012 27.4409 4.25325 27.4801 4.18923 27.5299C4.12521 27.5797 4.07542 27.6391 4.04299 27.7044C4.01057 27.7696 3.99622 27.8392 4.00085 27.9089C4.00548 27.9785 4.02898 28.0467 4.06988 28.1091C4.11079 28.1715 4.16821 28.2268 4.23851 28.2714C4.30881 28.316 4.39046 28.349 4.47833 28.3684C4.56621 28.3877 4.65839 28.393 4.74906 28.3838L5.84213 28.3513L5.84821 28.3421ZM6.81376 28.3143C6.77733 28.6478 6.74696 28.9442 6.69838 29.2406C6.53481 29.732 6.48345 30.2412 6.54656 30.7459C6.72267 31.297 7.46354 31.5194 9.10923 31.7741L10.8703 31.9825L14.0706 32.1585C17.457 32.2997 20.8513 32.2904 24.2363 32.1307C26.7929 31.9825 29.1734 31.7 30.5822 31.0979C30.6872 31.0301 30.7866 30.9574 30.8798 30.8802C31.0698 30.742 31.2214 30.576 31.3257 30.3922C31.43 30.2084 31.4849 30.0106 31.4871 29.8103C31.4995 29.5664 31.4203 29.3248 31.259 29.1139C31.0976 28.9031 30.8607 28.7317 30.5762 28.62C29.7574 28.3631 28.8904 28.2068 28.0074 28.1568C26.5864 28.0457 25.1168 28.1012 23.7565 28.0966L16.4997 28.2587C13.7488 28.2958 11.0343 28.2587 8.2712 28.3189L6.8259 28.3421L6.81376 28.3143Z" fill="#ECCD5E" fill-opacity="0.7"/>
<g filter="url(#filter0_f_8_8252)">
<path fill-rule="evenodd" clip-rule="evenodd" d="M5.64236 7.49703C7.25158 7.3029 8.84861 7.1365 10.4517 6.96548C11.5123 6.84993 12.5791 6.72051 13.6458 6.6142C14.7125 6.50789 15.9316 6.39234 17.0836 6.30452C17.998 6.23056 18.9123 6.17972 19.851 6.1335C21.2408 6.06879 22.6427 6.02257 24.0325 5.97172C25.2914 5.8683 26.5585 5.83431 27.8239 5.87004C28.5878 5.90765 29.3283 6.08529 29.9817 6.38771C30.4741 6.61133 30.8869 6.92276 31.1843 7.29492C31.4818 7.66709 31.6549 8.08872 31.6885 8.52315C31.696 8.94374 31.536 9.35627 31.2293 9.70677C30.9226 10.0573 30.4835 10.3294 29.9695 10.4876C27.9019 11.1556 25.6927 11.5361 23.4473 11.6107C19.9363 11.8141 16.2546 11.6108 13.0423 11.694C11.4087 11.7309 10.2628 11.8049 9.34844 11.5691C8.43412 11.3334 7.84894 10.7926 7.16624 9.65095C7.03824 9.42909 6.86147 9.18874 6.75175 8.95763C6.7033 8.8911 6.6744 8.81741 6.66704 8.74162C6.65967 8.66582 6.67401 8.58972 6.70908 8.51852C6.7443 8.47209 6.76713 8.42085 6.77623 8.36773C6.78534 8.31461 6.78055 8.26065 6.76215 8.20893C6.74375 8.15721 6.71211 8.10875 6.66901 8.06631C6.62591 8.02386 6.57222 7.98826 6.51099 7.96156C6.44975 7.93485 6.38216 7.91755 6.31211 7.91065C6.24206 7.90375 6.1709 7.90736 6.10269 7.92131C6.03448 7.93526 5.97058 7.95926 5.91461 7.99194C5.85863 8.02462 5.81169 8.06535 5.77647 8.11178C5.58964 8.31758 5.49949 8.56501 5.52047 8.81434C5.61008 9.23947 5.80224 9.64842 6.08734 10.0207C6.95291 11.4906 7.82456 12.1377 8.95832 12.4381C9.97627 12.7062 11.2502 12.6646 13.0789 12.6276C16.3034 12.5629 20.0095 12.7755 23.5388 12.586C25.9415 12.5066 28.3058 12.0995 30.5181 11.3843C31.2671 11.1494 31.9049 10.7482 32.3476 10.2335C32.7904 9.71873 33.0175 9.11446 32.999 8.50004C32.9598 7.9037 32.728 7.32377 32.3242 6.81121C31.9203 6.29865 31.3567 5.86912 30.6827 5.56035C29.853 5.17397 28.9114 4.94707 27.9397 4.89938C26.613 4.86817 25.2851 4.90678 23.9655 5.01493C22.5696 5.07502 21.1676 5.13049 19.7657 5.20444C18.8269 5.25067 17.8882 5.31075 16.9556 5.38933C15.0112 5.5511 13.0911 5.736 11.1832 5.99022C9.27528 6.24443 7.38568 6.56799 5.48998 6.91465C5.38434 6.93033 5.29115 6.97699 5.23065 7.0445C5.17015 7.11202 5.14724 7.19492 5.16692 7.27517C5.17711 7.31471 5.19754 7.35233 5.227 7.38585C5.25647 7.41937 5.29439 7.44812 5.33859 7.47047C5.3828 7.49281 5.43241 7.50831 5.48455 7.51604C5.53668 7.52377 5.59032 7.52359 5.64236 7.51552V7.49703Z" fill="#ECCD5E" fill-opacity="0.7"/>
<path fill-rule="evenodd" clip-rule="evenodd" d="M6.21588 17.3828C6.19546 17.4091 6.18109 17.4376 6.17333 17.4673C6.06289 17.5938 5.96142 17.7243 5.86935 17.8585C5.53969 18.4543 5.31692 19.0789 5.20665 19.7165C5.08773 20.1609 5.1982 20.6217 5.51672 21.0101C6.15444 21.5816 7.0156 21.9972 7.98507 22.2013C9.27724 22.4635 10.5971 22.6463 11.9308 22.7481C13.7552 22.9394 15.5959 23.0359 17.439 23.037C20.1627 23.037 22.9107 22.9126 25.6101 22.7792C26.5464 22.7347 27.738 22.7392 28.8445 22.6103C29.6419 22.5355 30.4108 22.3451 31.1062 22.0502C31.3371 21.9364 31.5422 21.7969 31.7142 21.6368C31.9426 21.4277 32.146 21.2046 32.3221 20.97C33.6293 19.2676 32.8936 18.2807 31.4102 17.6807C29.793 17.0228 26.9659 16.9205 25.0387 16.8405L18.1564 16.6183C16.2535 16.5472 14.3566 16.5383 12.4597 16.5827C10.5629 16.6272 8.67208 16.7205 6.78737 16.8539C6.70021 16.8578 6.61502 16.8744 6.53686 16.9029C6.4587 16.9314 6.38919 16.9711 6.33245 17.0196C6.27572 17.0681 6.23293 17.1245 6.20664 17.1854C6.18034 17.2463 6.17108 17.3104 6.1794 17.3739L6.21588 17.3828ZM6.97584 17.8051C6.98416 17.8984 6.98416 17.9919 6.97584 18.0852C6.87249 18.5875 6.53203 19.2453 6.47123 19.8099C6.40595 20.0183 6.4425 20.2369 6.57458 20.4277C7.07309 20.826 7.72309 21.1062 8.44105 21.2323C9.66378 21.4649 10.9101 21.6255 12.1679 21.7124C13.924 21.8961 15.6955 21.9897 17.4694 21.9924C20.1627 21.9924 22.85 21.8724 25.5494 21.7479C26.4431 21.7035 27.586 21.7124 28.65 21.5924C29.2604 21.5434 29.8503 21.4027 30.3827 21.179C30.5357 21.1049 30.6695 21.0116 30.7779 20.9034C30.9137 20.7599 31.0396 20.6116 31.1548 20.4588C31.9087 19.4809 31.6351 18.8942 30.784 18.5475C29.3188 17.9518 26.747 17.8985 25.0022 17.8229L18.126 17.5829C16.2656 17.5117 14.3992 17.4984 12.5388 17.5384C10.6784 17.5784 8.84232 17.6629 7.00017 17.7918L6.97584 17.8051Z" fill="#ECCD5E" fill-opacity="0.7"/>
<path fill-rule="evenodd" clip-rule="evenodd" d="M5.84821 28.3421C5.72068 28.5783 5.60529 28.8053 5.5142 29.0229C5.21887 29.6403 5.12914 30.304 5.25308 30.9543C5.4717 31.7834 6.35831 32.3994 8.78738 32.8486L10.676 33.0941L13.9977 33.3072C17.449 33.4548 20.909 33.4393 24.3577 33.2608C27.1572 33.0802 29.7503 32.6912 31.2806 32.0057C31.8031 31.79 32.239 31.4701 32.5417 31.0802C32.8444 30.6903 33.0025 30.2449 32.9992 29.7918C33.0134 29.3248 32.8486 28.8648 32.525 28.4683C32.2013 28.0717 31.733 27.7558 31.1773 27.5594C30.2125 27.2449 29.187 27.0525 28.141 26.9897C26.6712 26.9197 25.1977 26.9073 23.7262 26.9526L16.4511 27.1703C13.7063 27.2212 10.9857 27.2212 8.22263 27.2722C7.04453 27.2954 5.86035 27.3278 4.68225 27.3787C4.59083 27.3766 4.49983 27.3889 4.41497 27.4149C4.33012 27.4409 4.25325 27.4801 4.18923 27.5299C4.12521 27.5797 4.07542 27.6391 4.04299 27.7044C4.01057 27.7696 3.99622 27.8392 4.00085 27.9089C4.00548 27.9785 4.02898 28.0467 4.06988 28.1091C4.11079 28.1715 4.16821 28.2268 4.23851 28.2714C4.30881 28.316 4.39046 28.349 4.47833 28.3684C4.56621 28.3877 4.65839 28.393 4.74906 28.3838L5.84213 28.3513L5.84821 28.3421ZM6.81376 28.3143C6.77733 28.6478 6.74696 28.9442 6.69838 29.2406C6.53481 29.732 6.48345 30.2412 6.54656 30.7459C6.72267 31.297 7.46354 31.5194 9.10923 31.7741L10.8703 31.9825L14.0706 32.1585C17.457 32.2997 20.8513 32.2904 24.2363 32.1307C26.7929 31.9825 29.1734 31.7 30.5822 31.0979C30.6872 31.0301 30.7866 30.9574 30.8798 30.8802C31.0698 30.742 31.2214 30.576 31.3257 30.3922C31.43 30.2084 31.4849 30.0106 31.4871 29.8103C31.4995 29.5664 31.4203 29.3248 31.259 29.1139C31.0976 28.9031 30.8607 28.7317 30.5762 28.62C29.7574 28.3631 28.8904 28.2068 28.0074 28.1568C26.5864 28.0457 25.1168 28.1012 23.7565 28.0966L16.4997 28.2587C13.7488 28.2958 11.0343 28.2587 8.2712 28.3189L6.8259 28.3421L6.81376 28.3143Z" fill="#ECCD5E" fill-opacity="0.7"/>
</g>
<defs>
<filter id="filter0_f_8_8252" x="0" y="-3" width="37" height="43" filterUnits="userSpaceOnUse" color-interpolation-filters="sRGB">
<feFlood flood-opacity="0" result="BackgroundImageFix"/>
<feBlend mode="normal" in="SourceGraphic" in2="BackgroundImageFix" result="shape"/>
<feGaussianBlur stdDeviation="2" result="effect1_foregroundBlur_8_8252"/>
</filter>
</defs>
</svg>
