<svg width="42" height="90" viewBox="0 0 42 90" fill="none" xmlns="http://www.w3.org/2000/svg">
<g filter="url(#filter0_f_8_8228)">
<path d="M20.9409 36.2939C20.8433 35.708 20.7049 34.9674 20.5259 34.0723L20.4038 33.4619C20.1271 32.1924 19.8748 31.1507 19.647 30.3369C19.4191 29.5068 19.1668 28.8314 18.8901 28.3105C18.5809 27.7246 18.2472 27.4316 17.8892 27.4316C17.4985 27.4316 17.1486 27.5293 16.8394 27.7246C16.5464 27.9036 16.3999 28.1478 16.3999 28.457C16.3999 28.9779 16.5545 29.3929 16.8638 29.7021V30.2393C17.1079 30.5811 17.4741 31.7367 17.9624 33.7061C18.467 35.6755 18.9227 37.71 19.3296 39.8096C19.7528 41.9092 19.9644 43.2682 19.9644 43.8867C19.9644 45.319 19.7284 46.9385 19.2563 48.7451L18.7925 50.5029C18.2391 52.5537 17.8241 54.2139 17.5474 55.4834C17.2707 56.7529 17.1323 57.9329 17.1323 59.0234C17.1323 59.3652 17.2788 59.6419 17.5718 59.8535C17.881 60.0651 18.2391 60.1709 18.646 60.1709C19.5086 60.1709 19.9399 59.5524 19.9399 58.3154C19.9399 58.0062 19.9318 57.8109 19.9155 57.7295C20.2573 56.5902 20.534 55.0684 20.7456 53.1641C20.9572 51.1621 21.1037 49.917 21.1851 49.4287L21.4048 50.625C21.535 51.4062 21.771 52.6514 22.1128 54.3604C22.3732 55.6787 22.7394 56.9482 23.2114 58.1689C23.423 58.7223 23.659 59.1536 23.9194 59.4629C24.1961 59.7721 24.4728 59.9268 24.7495 59.9268C25.1076 59.9268 25.4168 59.8047 25.6772 59.5605C25.9539 59.3164 26.0923 59.0234 26.0923 58.6816C26.0923 57.8516 25.7912 56.5332 25.189 54.7266L24.9692 54.043C24.1554 51.569 23.5369 49.5589 23.1138 48.0127C22.6906 46.4665 22.479 45.2051 22.479 44.2285C22.479 43.0404 22.6987 41.1198 23.1382 38.4668C23.5776 35.8138 23.9927 33.9665 24.3833 32.9248V32.3389C24.3833 31.5413 24.3914 31.0205 24.4077 30.7764C24.424 30.3695 24.5054 29.9056 24.6519 29.3848C24.7983 28.8639 24.9937 28.4163 25.2378 28.042L24.3101 26.8701C23.4312 27.098 22.8371 27.4642 22.5278 27.9688C22.2186 28.457 22.064 29.165 22.064 30.0928C22.064 30.3695 22.0721 30.6299 22.0884 30.874V31.7285C22.0884 32.4121 22.0233 33.291 21.8931 34.3652C21.8442 34.8372 21.7384 35.5208 21.5757 36.416C21.5594 36.4811 21.5431 36.5544 21.5269 36.6357C21.5106 36.7171 21.4943 36.8148 21.478 36.9287C21.3641 37.5309 21.2909 37.946 21.2583 38.1738L20.9409 36.2939Z" fill="#ECCD5E" fill-opacity="0.7"/>
</g>
<g filter="url(#filter1_d_8_8228)">
<path d="M17.5332 59.5605C17.5332 59.9512 17.8424 60.1465 18.4609 60.1465C18.7214 60.1465 18.9085 60.0244 19.0225 59.7803C19.1527 59.5361 19.2178 59.2432 19.2178 58.9014C19.2178 58.6084 19.1852 58.4049 19.1201 58.291C19.348 57.6074 19.6491 55.7845 20.0234 52.8223C20.3815 49.9089 20.7477 48.1673 21.1221 47.5977C21.5615 49.8763 22.1882 52.6676 23.002 55.9717L23.9297 59.7559C24.125 59.8535 24.3366 59.9023 24.5645 59.9023C24.776 59.9023 24.9551 59.8372 25.1016 59.707C25.248 59.5768 25.3213 59.4059 25.3213 59.1943C25.3213 58.9176 25.1992 58.5758 24.9551 58.1689C24.8086 57.9248 24.7272 57.7865 24.7109 57.7539C24.4505 57.1029 23.889 54.8242 23.0264 50.918C22.1637 47.0117 21.7324 44.79 21.7324 44.2529C21.7324 42.8044 22.0173 40.7292 22.5869 38.0273C23.1403 35.4232 23.4658 33.6003 23.5635 32.5586L23.6123 32.5098C23.6123 32.3958 23.6042 32.29 23.5879 32.1924C23.5716 32.111 23.5635 32.0133 23.5635 31.8994C23.5635 29.7673 23.832 28.3024 24.3691 27.5049L23.9297 26.8945L23.5391 26.9678L23.124 27.041C22.8962 27.1224 22.6764 28.5059 22.4648 31.1914C22.3997 32.2656 22.1963 33.9095 21.8545 36.123C21.529 38.3366 21.2686 39.6468 21.0732 40.0537C20.7965 39.126 20.4548 37.5716 20.0479 35.3906C19.6572 33.291 19.234 31.6309 18.7783 30.4102L18.7051 29.2627C18.64 28.807 18.5179 28.3838 18.3389 27.9932C18.1598 27.6025 17.9401 27.4072 17.6797 27.4072C17.5007 27.4072 17.3053 27.4561 17.0938 27.5537C16.8822 27.6514 16.7764 27.7653 16.7764 27.8955C16.7764 28.0094 16.8496 28.2048 16.9961 28.4814C17.1426 28.7419 17.2158 28.9779 17.2158 29.1895C17.2158 29.2546 17.2077 29.3115 17.1914 29.3604L17.167 29.5557C17.3786 29.7998 17.7367 30.9717 18.2412 33.0713C18.7458 35.1709 19.2178 37.36 19.6572 39.6387C20.0967 41.9173 20.3164 43.3415 20.3164 43.9111C20.3164 45.5876 19.8525 48.208 18.9248 51.7725C17.9971 55.3369 17.5332 57.9329 17.5332 59.5605Z" fill="#ECCD5E" fill-opacity="0.7" shape-rendering="crispEdges"/>
</g>
<defs>
<filter id="filter0_f_8_8228" x="12.3999" y="22.8701" width="17.6924" height="41.3008" filterUnits="userSpaceOnUse" color-interpolation-filters="sRGB">
<feFlood flood-opacity="0" result="BackgroundImageFix"/>
<feBlend mode="normal" in="SourceGraphic" in2="BackgroundImageFix" result="shape"/>
<feGaussianBlur stdDeviation="2" result="effect1_foregroundBlur_8_8228"/>
</filter>
<filter id="filter1_d_8_8228" x="12.7764" y="26.8945" width="16.5449" height="41.252" filterUnits="userSpaceOnUse" color-interpolation-filters="sRGB">
<feFlood flood-opacity="0" result="BackgroundImageFix"/>
<feColorMatrix in="SourceAlpha" type="matrix" values="0 0 0 0 0 0 0 0 0 0 0 0 0 0 0 0 0 0 127 0" result="hardAlpha"/>
<feOffset dy="4"/>
<feGaussianBlur stdDeviation="2"/>
<feComposite in2="hardAlpha" operator="out"/>
<feColorMatrix type="matrix" values="0 0 0 0 0 0 0 0 0 0 0 0 0 0 0 0 0 0 0.25 0"/>
<feBlend mode="normal" in2="BackgroundImageFix" result="effect1_dropShadow_8_8228"/>
<feBlend mode="normal" in="SourceGraphic" in2="effect1_dropShadow_8_8228" result="shape"/>
</filter>
</defs>
</svg>
