<svg width="34" height="37" viewBox="0 0 34 37" fill="none" xmlns="http://www.w3.org/2000/svg">
<path fill-rule="evenodd" clip-rule="evenodd" d="M4.06264 4.71018C4.30494 5.10929 4.52586 5.5158 4.77529 5.90013C5.86026 7.38271 7.02116 8.80382 8.25301 10.1573C11.7236 14.1707 15.465 17.9475 18.8929 21.983C20.7743 24.2003 22.6058 26.6319 24.5941 28.827C25.9477 30.3247 27.4395 31.6812 29.0481 32.8773C29.1108 32.9258 29.1821 32.9611 29.258 32.981C29.3338 33.001 29.4127 33.0052 29.4901 32.9936C29.5675 32.9819 29.642 32.9545 29.7092 32.913C29.7765 32.8715 29.8351 32.8167 29.8819 32.7517C29.9287 32.6866 29.9627 32.6127 29.982 32.534C30.0012 32.4554 30.0053 32.3736 29.9941 32.2933C29.9828 32.213 29.9564 32.1357 29.9164 32.066C29.8764 31.9963 29.8235 31.9354 29.7608 31.8869C28.2481 30.6937 26.8432 29.3603 25.5633 27.9032C23.575 25.6859 21.7364 23.2986 19.8621 21.0887C16.4271 17.0384 12.7 13.2468 9.17234 9.26304C7.97508 7.9031 6.87048 6.46924 5.68748 5.1019C5.38816 4.75452 5.06747 4.44409 4.76103 4.10411C4.67722 4.03587 4.57355 3.99917 4.467 4.00001C4.36046 4.00086 4.25734 4.0392 4.17454 4.10875C4.09175 4.17831 4.03418 4.27495 4.01126 4.38287C3.98834 4.49079 4.00142 4.60359 4.04838 4.70279L4.06264 4.71018Z" fill="#ECCD5E" fill-opacity="0.7"/>
<path fill-rule="evenodd" clip-rule="evenodd" d="M6.43068 32.8648C7.95225 31.4639 9.38973 29.9699 10.7352 28.3909C12.7128 26.0729 14.5783 23.6196 16.5691 21.1935C19.6278 17.4562 22.8051 13.8203 25.9165 10.1235C27.2348 8.5376 28.5532 6.9314 29.8716 5.30493C29.9192 5.24458 29.9548 5.1752 29.9762 5.10076C29.9977 5.02633 30.0047 4.94829 29.9967 4.8711C29.9888 4.79391 29.966 4.71909 29.9299 4.6509C29.8937 4.5827 29.8448 4.52248 29.7859 4.47367C29.7271 4.42486 29.6594 4.3884 29.5868 4.3664C29.5142 4.3444 29.4381 4.33728 29.3628 4.34544C29.2875 4.3536 29.2145 4.37688 29.148 4.41395C29.0815 4.45103 29.0227 4.50117 28.9751 4.56152C27.6897 6.17673 26.3713 7.77166 25.02 9.35308C21.9086 13.0566 18.7247 16.6925 15.666 20.4433C13.6884 22.8695 11.8295 25.2957 9.87168 27.6475C8.58443 29.2262 7.21343 30.731 5.7649 32.1552C5.71945 32.1996 5.68298 32.2527 5.65756 32.3116C5.63213 32.3704 5.61825 32.4338 5.61672 32.4981C5.61519 32.5624 5.62604 32.6264 5.64863 32.6864C5.67123 32.7465 5.70514 32.8014 5.74843 32.848C5.79171 32.8946 5.84351 32.9319 5.90089 32.958C5.95827 32.9841 6.0201 32.9983 6.08284 32.9999C6.14558 33.0014 6.20802 32.9903 6.26657 32.9671C6.32512 32.944 6.37865 32.9092 6.4241 32.8648H6.43068Z" fill="#ECCD5E" fill-opacity="0.7"/>
<g filter="url(#filter0_f_8_8267)">
<path fill-rule="evenodd" clip-rule="evenodd" d="M4.06264 4.71018C4.30494 5.10929 4.52586 5.5158 4.77529 5.90013C5.86026 7.38271 7.02116 8.80382 8.25301 10.1573C11.7236 14.1707 15.465 17.9475 18.8929 21.983C20.7743 24.2003 22.6058 26.6319 24.5941 28.827C25.9477 30.3247 27.4395 31.6812 29.0481 32.8773C29.1108 32.9258 29.1821 32.9611 29.258 32.981C29.3338 33.001 29.4127 33.0052 29.4901 32.9936C29.5675 32.9819 29.642 32.9545 29.7092 32.913C29.7765 32.8715 29.8351 32.8167 29.8819 32.7517C29.9287 32.6866 29.9627 32.6127 29.982 32.534C30.0012 32.4554 30.0053 32.3736 29.9941 32.2933C29.9828 32.213 29.9564 32.1357 29.9164 32.066C29.8764 31.9963 29.8235 31.9354 29.7608 31.8869C28.2481 30.6937 26.8432 29.3603 25.5633 27.9032C23.575 25.6859 21.7364 23.2986 19.8621 21.0887C16.4271 17.0384 12.7 13.2468 9.17234 9.26304C7.97508 7.9031 6.87048 6.46924 5.68748 5.1019C5.38816 4.75452 5.06747 4.44409 4.76103 4.10411C4.67722 4.03587 4.57355 3.99917 4.467 4.00001C4.36046 4.00086 4.25734 4.0392 4.17454 4.10875C4.09175 4.17831 4.03418 4.27495 4.01126 4.38287C3.98834 4.49079 4.00142 4.60359 4.04838 4.70279L4.06264 4.71018Z" fill="#ECCD5E" fill-opacity="0.7"/>
<path fill-rule="evenodd" clip-rule="evenodd" d="M6.43068 32.8648C7.95225 31.4639 9.38973 29.9699 10.7352 28.3909C12.7128 26.0729 14.5783 23.6196 16.5691 21.1935C19.6278 17.4562 22.8051 13.8203 25.9165 10.1235C27.2348 8.5376 28.5532 6.9314 29.8716 5.30493C29.9192 5.24458 29.9548 5.1752 29.9762 5.10076C29.9977 5.02633 30.0047 4.94829 29.9967 4.8711C29.9888 4.79391 29.966 4.71909 29.9299 4.6509C29.8937 4.5827 29.8448 4.52248 29.7859 4.47367C29.7271 4.42486 29.6594 4.3884 29.5868 4.3664C29.5142 4.3444 29.4381 4.33728 29.3628 4.34544C29.2875 4.3536 29.2145 4.37688 29.148 4.41395C29.0815 4.45103 29.0227 4.50117 28.9751 4.56152C27.6897 6.17673 26.3713 7.77166 25.02 9.35308C21.9086 13.0566 18.7247 16.6925 15.666 20.4433C13.6884 22.8695 11.8295 25.2957 9.87168 27.6475C8.58443 29.2262 7.21343 30.731 5.7649 32.1552C5.71945 32.1996 5.68298 32.2527 5.65756 32.3116C5.63213 32.3704 5.61825 32.4338 5.61672 32.4981C5.61519 32.5624 5.62604 32.6264 5.64863 32.6864C5.67123 32.7465 5.70514 32.8014 5.74843 32.848C5.79171 32.8946 5.84351 32.9319 5.90089 32.958C5.95827 32.9841 6.0201 32.9983 6.08284 32.9999C6.14558 33.0014 6.20802 32.9903 6.26657 32.9671C6.32512 32.944 6.37865 32.9092 6.4241 32.8648H6.43068Z" fill="#ECCD5E" fill-opacity="0.7"/>
</g>
<defs>
<filter id="filter0_f_8_8267" x="0" y="0" width="34.0002" height="37" filterUnits="userSpaceOnUse" color-interpolation-filters="sRGB">
<feFlood flood-opacity="0" result="BackgroundImageFix"/>
<feBlend mode="normal" in="SourceGraphic" in2="BackgroundImageFix" result="shape"/>
<feGaussianBlur stdDeviation="2" result="effect1_foregroundBlur_8_8267"/>
</filter>
</defs>
</svg>
